<svg
   width="38"
   height="12"
   viewBox="0 0 38 12"
   fill="none"
   xmlns="http://www.w3.org/2000/svg">
   <path
      fill-rule="evenodd"
      clip-rule="evenodd"
      d="M0.3974 3.63086C0.1325 4.34701 0 5.09893 0 5.88673C0 7.51953 0.4691 8.85513 1.4072 9.89353C2.4385 11.0322 3.8636 11.6015 5.6826 11.6015C7.4443 11.6015 8.8587 11.0215 9.9258 9.86133C10.4458 9.29702 10.8319 8.65672 11.0841 7.94043H8.1529C8.08742 8.04447 8.01595 8.14407 7.9385 8.23923C7.4228 8.87663 6.7174 9.19533 5.8222 9.19533C4.8555 9.19533 4.0749 8.86943 3.4805 8.21773C3.2012 7.91703 2.9863 7.55533 2.8359 7.13283C2.6855 6.71033 2.6103 6.27343 2.6103 5.82223C2.6103 4.89843 2.861 4.11426 3.3623 3.46973C3.9137 2.7679 4.6764 2.41699 5.6504 2.41699C6.61 2.41699 7.3655 2.74642 7.917 3.40527C8.05268 3.56734 8.1705 3.74279 8.27047 3.93164H11.2237C10.9917 3.05063 10.5734 2.28793 9.9687 1.64355C8.9446 0.54785 7.5625 0 5.8222 0C4.0749 0 2.6533 0.58008 1.5576 1.74023C1.0563 2.27734 0.6696 2.90755 0.3974 3.63086ZM26.4472 3.58789C26.1608 4.30404 26.0176 5.08103 26.0176 5.91893C26.0176 7.58043 26.6155 8.94463 27.8115 10.0117C29.0003 11.0716 30.5042 11.6015 32.3232 11.6015C32.6527 11.6015 32.9964 11.58 33.3545 11.5371C34.5719 11.3939 35.4528 11.136 35.9971 10.7636L36.1152 9.08793C36.1367 8.77283 36.1546 8.46483 36.1689 8.16403C36.0615 8.25713 35.9004 8.35743 35.6855 8.46483C34.8691 8.87303 33.8916 9.07713 32.7529 9.07713C31.6644 9.07713 30.7799 8.86593 30.0996 8.44333C29.4193 8.01363 28.986 7.41573 28.7998 6.64943H32.581C34.7796 6.64943 36.237 6.54913 36.9531 6.34863C37.039 6.14093 37.082 5.75423 37.082 5.18843C37.082 3.71322 36.6273 2.48861 35.7178 1.51465C34.7939 0.50488 33.5693 0 32.0439 0C30.2392 0 28.7783 0.56934 27.6611 1.70801C27.1383 2.24512 26.7337 2.87175 26.4472 3.58789ZM31.7109 2.25586C33.0931 2.25586 33.931 3.02572 34.2246 4.56543C34.0384 4.57973 33.8271 4.59053 33.5908 4.59763L32.7099 4.62993C32.359 4.63703 32.001 4.64063 31.6357 4.64063H31.0234C30.7799 4.64063 30.5257 4.63703 30.2607 4.62993H29.4658C29.2152 4.62273 29.0039 4.61553 28.832 4.60843C28.9251 4.26465 29.0576 3.94954 29.2295 3.66309C29.7952 2.72494 30.6224 2.25586 31.7109 2.25586ZM13.9004 0.21484H16.5107V1.1709C17.456 0.3903 18.4658 0 19.54 0C20.7145 0 21.6527 0.40104 22.3545 1.20313C23.0563 1.99805 23.4072 3.0472 23.4072 4.35059V8.62593C23.4072 9.83623 23.4251 10.5631 23.4609 10.8066C23.4967 11.0501 23.5433 11.2077 23.6006 11.2793C23.665 11.3509 23.7187 11.4153 23.7617 11.4726L23.7402 11.5156C23.1601 11.4655 22.7376 11.4404 22.4726 11.4404H21.7207C21.4915 11.4404 21.1836 11.4511 20.7969 11.4726V5.61813C20.7969 3.51986 20.1595 2.4707 18.8847 2.4707C17.9394 2.4707 17.1481 2.95768 16.5107 3.93164H13.9004V0.21484ZM16.5967 11.4404C16.5394 11.1539 16.5107 10.6956 16.5107 10.0654V7.94043H13.9004V11.4404H16.5967ZM6.87226 4.44043H17.4929C18.4261 4.44043 19.1826 5.112 19.1826 5.94043C19.1826 6.76886 18.4261 7.44043 17.4929 7.44043H6.87226C5.93909 7.44043 5.1826 6.76886 5.1826 5.94043C5.1826 5.112 5.93909 4.44043 6.87226 4.44043Z"
      fill="url(#paint0_linear)"
   />
   <defs>
      <linearGradient
         id="paint0_linear"
         x1="0"
         y1="0"
         x2="37"
         y2="12"
         gradientUnits="userSpaceOnUse">
         <stop stop-color="#C471F5" />
         <stop offset="0.505208" stop-color="#FA71CD" />
         <stop offset="0.984375" stop-color="#7997FF" />
      </linearGradient>
   </defs>
</svg>
