<svg viewBox="0 0 480 554" fill="none" xmlns="http://www.w3.org/2000/svg">
   <path
      d="M64.6154 553.846H27.6923C20.3479 553.846 13.3042 550.929 8.11089 545.735C2.91757 540.542 0 533.498 0 526.154V360C0 352.656 2.91757 345.612 8.11089 340.419C13.3042 335.225 20.3479 332.308 27.6923 332.308H64.6154C71.9598 332.308 79.0035 335.225 84.1968 340.419C89.3901 345.612 92.3077 352.656 92.3077 360V526.154C92.3077 533.498 89.3901 540.542 84.1968 545.735C79.0035 550.929 71.9598 553.846 64.6154 553.846ZM323.077 553.846H286.154C278.809 553.846 271.766 550.929 266.572 545.735C261.379 540.542 258.462 533.498 258.462 526.154V249.231C258.462 241.886 261.379 234.843 266.572 229.649C271.766 224.456 278.809 221.538 286.154 221.538H323.077C330.421 221.538 337.465 224.456 342.658 229.649C347.852 234.843 350.769 241.886 350.769 249.231V526.154C350.769 533.498 347.852 540.542 342.658 545.735C337.465 550.929 330.421 553.846 323.077 553.846ZM452.308 553.846H415.385C408.04 553.846 400.997 550.929 395.803 545.735C390.61 540.542 387.692 533.498 387.692 526.154V120C387.692 112.656 390.61 105.612 395.803 100.419C400.997 95.2253 408.04 92.3077 415.385 92.3077H452.308C459.652 92.3077 466.696 95.2253 471.889 100.419C477.082 105.612 480 112.656 480 120V526.154C480 533.498 477.082 540.542 471.889 545.735C466.696 550.929 459.652 553.846 452.308 553.846ZM193.846 553.846H156.923C149.579 553.846 142.535 550.929 137.342 545.735C132.148 540.542 129.231 533.498 129.231 526.154V27.6923C129.231 20.3479 132.148 13.3042 137.342 8.11089C142.535 2.91757 149.579 0 156.923 0H193.846C201.191 0 208.234 2.91757 213.428 8.11089C218.621 13.3042 221.538 20.3479 221.538 27.6923V526.154C221.538 533.498 218.621 540.542 213.428 545.735C208.234 550.929 201.191 553.846 193.846 553.846Z"
      fill="url(#paint0_linear_4_7)" />
   <defs>
      <linearGradient id="paint0_linear_4_7" x1="0" y1="0" x2="480" y2="553.846" gradientUnits="userSpaceOnUse">
         <stop stop-color="#00DBDE" />
         <stop offset="1" stop-color="#FC00FF" />
      </linearGradient>
   </defs>
</svg>
