<svg width="386" height="121" viewBox="0 0 386 121" fill="none" xmlns="http://www.w3.org/2000/svg">
   <path fill-rule="evenodd" clip-rule="evenodd"
      d="M4.12636 37.7007C1.3758 45.1367 0 52.9442 0 61.1243C0 78.0783 4.87085 91.9464 14.6115 102.728C25.3199 114.552 40.1173 120.463 59.0047 120.463C77.2971 120.463 91.9833 114.441 103.063 102.394C108.463 96.5347 112.472 89.8862 115.091 82.4487H84.6547C83.9748 83.529 83.2327 84.5631 82.4285 85.5512C77.0738 92.1696 69.7494 95.4788 60.4542 95.4788C50.4166 95.4788 42.3113 92.0948 36.1394 85.328C33.2393 82.2057 31.0079 78.45 29.4463 74.063C27.8846 69.676 27.1038 65.1395 27.1038 60.4545C27.1038 50.8624 29.7069 42.72 34.9121 36.0276C40.6375 28.7402 48.5569 25.0966 58.6703 25.0966C68.6342 25.0966 76.4789 28.5172 82.2053 35.3583C83.6141 37.0411 84.8375 38.8629 85.8755 40.8238H116.54C114.131 31.6759 109.788 23.7565 103.509 17.0656C92.8753 5.68855 78.5244 0 60.4542 0C42.3113 0 27.5503 6.0232 16.1732 18.0695C10.968 23.6465 6.95272 30.1903 4.12636 37.7007ZM274.612 37.2545C271.638 44.6906 270.151 52.7584 270.151 61.4586C270.151 78.7106 276.359 92.8757 288.778 103.955C301.121 114.961 316.737 120.463 335.624 120.463C339.046 120.463 342.615 120.24 346.333 119.794C358.974 118.307 368.12 115.63 373.772 111.763L374.998 94.3636C375.221 91.0918 375.407 87.8937 375.556 84.7704C374.441 85.7371 372.768 86.7786 370.537 87.8937C362.06 92.1322 351.91 94.2515 340.086 94.2515C328.784 94.2515 319.6 92.0585 312.536 87.6705C305.472 83.2087 300.973 77.0005 299.04 69.0437H338.301C361.13 69.0437 376.263 68.0022 383.698 65.9204C384.59 63.7637 385.037 59.7485 385.037 53.8735C385.037 38.5558 380.316 25.8402 370.872 15.7272C361.279 5.24237 348.563 0 332.724 0C313.985 0 298.816 5.91168 287.216 17.735C281.788 23.312 277.586 29.8185 274.612 37.2545ZM329.267 23.4235C343.619 23.4235 352.319 31.4173 355.367 47.4047C353.434 47.5532 351.24 47.6653 348.786 47.739L339.64 48.0744C335.996 48.1481 332.279 48.1855 328.486 48.1855H322.128C319.6 48.1855 316.96 48.1481 314.209 48.0744H305.955C303.353 47.9997 301.159 47.9249 299.374 47.8512C300.341 44.2816 301.716 41.0097 303.501 38.0353C309.375 28.2941 317.964 23.4235 329.267 23.4235ZM144.333 2.23077H171.437V12.1579C181.252 4.05264 191.738 0 202.891 0C215.087 0 224.828 4.16416 232.116 12.4926C239.403 20.7466 243.046 31.6403 243.046 45.1739V89.5665C243.046 102.134 243.232 109.681 243.604 112.209C243.975 114.738 244.459 116.374 245.054 117.117C245.723 117.861 246.281 118.53 246.727 119.125L246.504 119.571C240.48 119.051 236.093 118.79 233.342 118.79H225.535C223.155 118.79 219.958 118.901 215.942 119.125V58.3353C215.942 36.5481 209.324 25.6543 196.087 25.6543C186.272 25.6543 178.055 30.7108 171.437 40.8238H144.333V2.23077ZM172.33 118.79C171.735 115.815 171.437 111.057 171.437 104.513V82.4487H144.333V118.79H172.33ZM71.3574 46.1068H181.636C191.325 46.1068 199.18 53.0799 199.18 61.6819C199.18 70.2838 191.325 77.257 181.636 77.257H71.3574C61.6679 77.257 53.813 70.2838 53.813 61.6819C53.813 53.0799 61.6679 46.1068 71.3574 46.1068Z"
      fill="#B8B8B8" />
</svg>