<svg width="1033" height="729" viewBox="0 0 1033 729" fill="none" xmlns="http://www.w3.org/2000/svg">
<g filter="url(#filter0_d_207_3)">
<rect x="29" y="29" width="467" height="276" rx="35" fill="white"/>
<path d="M239.297 160.25V167H204.984V161.199L221.648 143.023C223.477 140.961 224.918 139.18 225.973 137.68C227.027 136.18 227.766 134.832 228.188 133.637C228.633 132.418 228.855 131.234 228.855 130.086C228.855 128.469 228.551 127.051 227.941 125.832C227.355 124.59 226.488 123.617 225.34 122.914C224.191 122.188 222.797 121.824 221.156 121.824C219.258 121.824 217.664 122.234 216.375 123.055C215.086 123.875 214.113 125.012 213.457 126.465C212.801 127.895 212.473 129.535 212.473 131.387H204C204 128.41 204.68 125.691 206.039 123.23C207.398 120.746 209.367 118.777 211.945 117.324C214.523 115.848 217.629 115.109 221.262 115.109C224.684 115.109 227.59 115.684 229.98 116.832C232.371 117.98 234.188 119.609 235.43 121.719C236.695 123.828 237.328 126.324 237.328 129.207C237.328 130.801 237.07 132.383 236.555 133.953C236.039 135.523 235.301 137.094 234.34 138.664C233.402 140.211 232.289 141.77 231 143.34C229.711 144.887 228.293 146.457 226.746 148.051L215.672 160.25H239.297ZM281.168 148.754V155.504H244.254L243.973 150.406L266.051 115.812H272.836L265.488 128.398L252.797 148.754H281.168ZM274.77 115.812V167H266.297V115.812H274.77ZM320.297 153.043C320.297 156.23 319.559 158.914 318.082 161.094C316.605 163.273 314.59 164.926 312.035 166.051C309.504 167.152 306.645 167.703 303.457 167.703C300.27 167.703 297.398 167.152 294.844 166.051C292.289 164.926 290.273 163.273 288.797 161.094C287.32 158.914 286.582 156.23 286.582 153.043C286.582 150.934 286.992 149.023 287.812 147.312C288.633 145.578 289.793 144.09 291.293 142.848C292.816 141.582 294.598 140.609 296.637 139.93C298.699 139.25 300.949 138.91 303.387 138.91C306.621 138.91 309.516 139.508 312.07 140.703C314.625 141.898 316.629 143.551 318.082 145.66C319.559 147.77 320.297 150.23 320.297 153.043ZM311.789 152.621C311.789 150.91 311.438 149.41 310.734 148.121C310.031 146.832 309.047 145.836 307.781 145.133C306.516 144.43 305.051 144.078 303.387 144.078C301.699 144.078 300.234 144.43 298.992 145.133C297.75 145.836 296.777 146.832 296.074 148.121C295.395 149.41 295.055 150.91 295.055 152.621C295.055 154.355 295.395 155.855 296.074 157.121C296.754 158.363 297.727 159.312 298.992 159.969C300.258 160.625 301.746 160.953 303.457 160.953C305.168 160.953 306.645 160.625 307.887 159.969C309.129 159.312 310.09 158.363 310.77 157.121C311.449 155.855 311.789 154.355 311.789 152.621ZM319.137 129.277C319.137 131.832 318.457 134.105 317.098 136.098C315.762 138.09 313.91 139.66 311.543 140.809C309.176 141.934 306.48 142.496 303.457 142.496C300.41 142.496 297.691 141.934 295.301 140.809C292.934 139.66 291.07 138.09 289.711 136.098C288.375 134.105 287.707 131.832 287.707 129.277C287.707 126.23 288.375 123.664 289.711 121.578C291.07 119.469 292.934 117.863 295.301 116.762C297.668 115.66 300.375 115.109 303.422 115.109C306.469 115.109 309.176 115.66 311.543 116.762C313.91 117.863 315.762 119.469 317.098 121.578C318.457 123.664 319.137 126.23 319.137 129.277ZM310.664 129.559C310.664 128.035 310.359 126.699 309.75 125.551C309.164 124.379 308.332 123.465 307.254 122.809C306.176 122.152 304.898 121.824 303.422 121.824C301.945 121.824 300.668 122.141 299.59 122.773C298.512 123.406 297.68 124.297 297.094 125.445C296.508 126.594 296.215 127.965 296.215 129.559C296.215 131.129 296.508 132.5 297.094 133.672C297.68 134.82 298.512 135.723 299.59 136.379C300.691 137.035 301.98 137.363 303.457 137.363C304.934 137.363 306.211 137.035 307.289 136.379C308.367 135.723 309.199 134.82 309.785 133.672C310.371 132.5 310.664 131.129 310.664 129.559Z" fill="black"/>
<path d="M225.516 251.115L233.057 229.406H236.73L227.256 255H224.637L225.516 251.115ZM218.467 229.406L225.938 251.115L226.869 255H224.25L214.793 229.406H218.467ZM243.217 235.98V255H239.947V235.98H243.217ZM239.701 230.936C239.701 230.408 239.859 229.963 240.176 229.6C240.504 229.236 240.984 229.055 241.617 229.055C242.238 229.055 242.713 229.236 243.041 229.6C243.381 229.963 243.551 230.408 243.551 230.936C243.551 231.439 243.381 231.873 243.041 232.236C242.713 232.588 242.238 232.764 241.617 232.764C240.984 232.764 240.504 232.588 240.176 232.236C239.859 231.873 239.701 231.439 239.701 230.936ZM256.33 255.352C255.006 255.352 253.805 255.129 252.727 254.684C251.66 254.227 250.74 253.588 249.967 252.768C249.205 251.947 248.619 250.975 248.209 249.85C247.799 248.725 247.594 247.494 247.594 246.158V245.42C247.594 243.873 247.822 242.496 248.279 241.289C248.736 240.07 249.357 239.039 250.143 238.195C250.928 237.352 251.818 236.713 252.814 236.279C253.811 235.846 254.842 235.629 255.908 235.629C257.268 235.629 258.439 235.863 259.424 236.332C260.42 236.801 261.234 237.457 261.867 238.301C262.5 239.133 262.969 240.117 263.273 241.254C263.578 242.379 263.73 243.609 263.73 244.945V246.404H249.527V243.75H260.479V243.504C260.432 242.66 260.256 241.84 259.951 241.043C259.658 240.246 259.189 239.59 258.545 239.074C257.9 238.559 257.021 238.301 255.908 238.301C255.17 238.301 254.49 238.459 253.869 238.775C253.248 239.08 252.715 239.537 252.27 240.146C251.824 240.756 251.479 241.5 251.232 242.379C250.986 243.258 250.863 244.271 250.863 245.42V246.158C250.863 247.061 250.986 247.91 251.232 248.707C251.49 249.492 251.859 250.184 252.34 250.781C252.832 251.379 253.424 251.848 254.115 252.188C254.818 252.527 255.615 252.697 256.506 252.697C257.654 252.697 258.627 252.463 259.424 251.994C260.221 251.525 260.918 250.898 261.516 250.113L263.484 251.678C263.074 252.299 262.553 252.891 261.92 253.453C261.287 254.016 260.508 254.473 259.582 254.824C258.668 255.176 257.584 255.352 256.33 255.352ZM272.344 251.625L277.23 235.98H279.375L278.953 239.092L273.979 255H271.887L272.344 251.625ZM269.057 235.98L273.223 251.801L273.521 255H271.324L265.805 235.98H269.057ZM284.051 251.678L288.023 235.98H291.258L285.738 255H283.559L284.051 251.678ZM279.85 235.98L284.631 251.361L285.176 255H283.102L277.986 239.057L277.564 235.98H279.85ZM305.672 249.955C305.672 249.486 305.566 249.053 305.355 248.654C305.156 248.244 304.74 247.875 304.107 247.547C303.486 247.207 302.549 246.914 301.295 246.668C300.24 246.445 299.285 246.182 298.43 245.877C297.586 245.572 296.865 245.203 296.268 244.77C295.682 244.336 295.23 243.826 294.914 243.24C294.598 242.654 294.439 241.969 294.439 241.184C294.439 240.434 294.604 239.725 294.932 239.057C295.271 238.389 295.746 237.797 296.355 237.281C296.977 236.766 297.721 236.361 298.588 236.068C299.455 235.775 300.422 235.629 301.488 235.629C303.012 235.629 304.312 235.898 305.391 236.438C306.469 236.977 307.295 237.697 307.869 238.6C308.443 239.49 308.73 240.48 308.73 241.57H305.479C305.479 241.043 305.32 240.533 305.004 240.041C304.699 239.537 304.248 239.121 303.65 238.793C303.064 238.465 302.344 238.301 301.488 238.301C300.586 238.301 299.854 238.441 299.291 238.723C298.74 238.992 298.336 239.338 298.078 239.76C297.832 240.182 297.709 240.627 297.709 241.096C297.709 241.447 297.768 241.764 297.885 242.045C298.014 242.314 298.236 242.566 298.553 242.801C298.869 243.023 299.314 243.234 299.889 243.434C300.463 243.633 301.195 243.832 302.086 244.031C303.645 244.383 304.928 244.805 305.936 245.297C306.943 245.789 307.693 246.393 308.186 247.107C308.678 247.822 308.924 248.689 308.924 249.709C308.924 250.541 308.748 251.303 308.396 251.994C308.057 252.686 307.559 253.283 306.902 253.787C306.258 254.279 305.484 254.666 304.582 254.947C303.691 255.217 302.689 255.352 301.576 255.352C299.9 255.352 298.482 255.053 297.322 254.455C296.162 253.857 295.283 253.084 294.686 252.135C294.088 251.186 293.789 250.184 293.789 249.129H297.059C297.105 250.02 297.363 250.729 297.832 251.256C298.301 251.771 298.875 252.141 299.555 252.363C300.234 252.574 300.908 252.68 301.576 252.68C302.467 252.68 303.211 252.562 303.809 252.328C304.418 252.094 304.881 251.771 305.197 251.361C305.514 250.951 305.672 250.482 305.672 249.955Z" fill="black"/>
</g>
<g filter="url(#filter1_d_207_3)">
<rect x="537" y="29" width="467" height="276" rx="35" fill="white"/>
<path d="M747.297 160.25V167H712.984V161.199L729.648 143.023C731.477 140.961 732.918 139.18 733.973 137.68C735.027 136.18 735.766 134.832 736.188 133.637C736.633 132.418 736.855 131.234 736.855 130.086C736.855 128.469 736.551 127.051 735.941 125.832C735.355 124.59 734.488 123.617 733.34 122.914C732.191 122.188 730.797 121.824 729.156 121.824C727.258 121.824 725.664 122.234 724.375 123.055C723.086 123.875 722.113 125.012 721.457 126.465C720.801 127.895 720.473 129.535 720.473 131.387H712C712 128.41 712.68 125.691 714.039 123.23C715.398 120.746 717.367 118.777 719.945 117.324C722.523 115.848 725.629 115.109 729.262 115.109C732.684 115.109 735.59 115.684 737.98 116.832C740.371 117.98 742.188 119.609 743.43 121.719C744.695 123.828 745.328 126.324 745.328 129.207C745.328 130.801 745.07 132.383 744.555 133.953C744.039 135.523 743.301 137.094 742.34 138.664C741.402 140.211 740.289 141.77 739 143.34C737.711 144.887 736.293 146.457 734.746 148.051L723.672 160.25H747.297ZM787.27 137.117V145.484C787.27 149.492 786.871 152.914 786.074 155.75C785.301 158.562 784.176 160.848 782.699 162.605C781.223 164.363 779.453 165.652 777.391 166.473C775.352 167.293 773.066 167.703 770.535 167.703C768.52 167.703 766.645 167.445 764.91 166.93C763.199 166.414 761.652 165.605 760.27 164.504C758.887 163.402 757.703 161.984 756.719 160.25C755.758 158.492 755.008 156.395 754.469 153.957C753.953 151.52 753.695 148.695 753.695 145.484V137.117C753.695 133.086 754.094 129.688 754.891 126.922C755.688 124.133 756.824 121.871 758.301 120.137C759.777 118.379 761.535 117.102 763.574 116.305C765.637 115.508 767.934 115.109 770.465 115.109C772.504 115.109 774.379 115.367 776.09 115.883C777.824 116.375 779.371 117.16 780.73 118.238C782.113 119.316 783.285 120.723 784.246 122.457C785.23 124.168 785.98 126.242 786.496 128.68C787.012 131.094 787.27 133.906 787.27 137.117ZM778.797 146.68V135.852C778.797 133.812 778.68 132.02 778.445 130.473C778.211 128.902 777.859 127.578 777.391 126.5C776.945 125.398 776.383 124.508 775.703 123.828C775.023 123.125 774.25 122.621 773.383 122.316C772.516 121.988 771.543 121.824 770.465 121.824C769.152 121.824 767.98 122.082 766.949 122.598C765.918 123.09 765.051 123.887 764.348 124.988C763.645 126.09 763.105 127.543 762.73 129.348C762.379 131.129 762.203 133.297 762.203 135.852V146.68C762.203 148.742 762.32 150.559 762.555 152.129C762.789 153.699 763.141 155.047 763.609 156.172C764.078 157.273 764.641 158.188 765.297 158.914C765.977 159.617 766.75 160.133 767.617 160.461C768.508 160.789 769.48 160.953 770.535 160.953C771.871 160.953 773.055 160.695 774.086 160.18C775.117 159.664 775.984 158.844 776.688 157.719C777.391 156.57 777.918 155.082 778.27 153.254C778.621 151.426 778.797 149.234 778.797 146.68ZM828.297 153.043C828.297 156.23 827.559 158.914 826.082 161.094C824.605 163.273 822.59 164.926 820.035 166.051C817.504 167.152 814.645 167.703 811.457 167.703C808.27 167.703 805.398 167.152 802.844 166.051C800.289 164.926 798.273 163.273 796.797 161.094C795.32 158.914 794.582 156.23 794.582 153.043C794.582 150.934 794.992 149.023 795.812 147.312C796.633 145.578 797.793 144.09 799.293 142.848C800.816 141.582 802.598 140.609 804.637 139.93C806.699 139.25 808.949 138.91 811.387 138.91C814.621 138.91 817.516 139.508 820.07 140.703C822.625 141.898 824.629 143.551 826.082 145.66C827.559 147.77 828.297 150.23 828.297 153.043ZM819.789 152.621C819.789 150.91 819.438 149.41 818.734 148.121C818.031 146.832 817.047 145.836 815.781 145.133C814.516 144.43 813.051 144.078 811.387 144.078C809.699 144.078 808.234 144.43 806.992 145.133C805.75 145.836 804.777 146.832 804.074 148.121C803.395 149.41 803.055 150.91 803.055 152.621C803.055 154.355 803.395 155.855 804.074 157.121C804.754 158.363 805.727 159.312 806.992 159.969C808.258 160.625 809.746 160.953 811.457 160.953C813.168 160.953 814.645 160.625 815.887 159.969C817.129 159.312 818.09 158.363 818.77 157.121C819.449 155.855 819.789 154.355 819.789 152.621ZM827.137 129.277C827.137 131.832 826.457 134.105 825.098 136.098C823.762 138.09 821.91 139.66 819.543 140.809C817.176 141.934 814.48 142.496 811.457 142.496C808.41 142.496 805.691 141.934 803.301 140.809C800.934 139.66 799.07 138.09 797.711 136.098C796.375 134.105 795.707 131.832 795.707 129.277C795.707 126.23 796.375 123.664 797.711 121.578C799.07 119.469 800.934 117.863 803.301 116.762C805.668 115.66 808.375 115.109 811.422 115.109C814.469 115.109 817.176 115.66 819.543 116.762C821.91 117.863 823.762 119.469 825.098 121.578C826.457 123.664 827.137 126.23 827.137 129.277ZM818.664 129.559C818.664 128.035 818.359 126.699 817.75 125.551C817.164 124.379 816.332 123.465 815.254 122.809C814.176 122.152 812.898 121.824 811.422 121.824C809.945 121.824 808.668 122.141 807.59 122.773C806.512 123.406 805.68 124.297 805.094 125.445C804.508 126.594 804.215 127.965 804.215 129.559C804.215 131.129 804.508 132.5 805.094 133.672C805.68 134.82 806.512 135.723 807.59 136.379C808.691 137.035 809.98 137.363 811.457 137.363C812.934 137.363 814.211 137.035 815.289 136.379C816.367 135.723 817.199 134.82 817.785 133.672C818.371 132.5 818.664 131.129 818.664 129.559Z" fill="black"/>
<path d="M740.6 246.861H743.975C743.799 248.479 743.336 249.926 742.586 251.203C741.836 252.48 740.775 253.494 739.404 254.244C738.033 254.982 736.322 255.352 734.271 255.352C732.771 255.352 731.406 255.07 730.176 254.508C728.957 253.945 727.908 253.148 727.029 252.117C726.15 251.074 725.471 249.826 724.99 248.373C724.521 246.908 724.287 245.279 724.287 243.486V240.938C724.287 239.145 724.521 237.521 724.99 236.068C725.471 234.604 726.156 233.35 727.047 232.307C727.949 231.264 729.033 230.461 730.299 229.898C731.564 229.336 732.988 229.055 734.57 229.055C736.504 229.055 738.139 229.418 739.475 230.145C740.811 230.871 741.848 231.879 742.586 233.168C743.336 234.445 743.799 235.928 743.975 237.615H740.6C740.436 236.42 740.131 235.395 739.686 234.539C739.24 233.672 738.607 233.004 737.787 232.535C736.967 232.066 735.895 231.832 734.57 231.832C733.434 231.832 732.432 232.049 731.564 232.482C730.709 232.916 729.988 233.531 729.402 234.328C728.828 235.125 728.395 236.08 728.102 237.193C727.809 238.307 727.662 239.543 727.662 240.902V243.486C727.662 244.74 727.791 245.918 728.049 247.02C728.318 248.121 728.723 249.088 729.262 249.92C729.801 250.752 730.486 251.408 731.318 251.889C732.15 252.357 733.135 252.592 734.271 252.592C735.713 252.592 736.861 252.363 737.717 251.906C738.572 251.449 739.217 250.793 739.65 249.938C740.096 249.082 740.412 248.057 740.6 246.861ZM751.639 228V255H748.369V228H751.639ZM760.393 235.98V255H757.123V235.98H760.393ZM756.877 230.936C756.877 230.408 757.035 229.963 757.352 229.6C757.68 229.236 758.16 229.055 758.793 229.055C759.414 229.055 759.889 229.236 760.217 229.6C760.557 229.963 760.727 230.408 760.727 230.936C760.727 231.439 760.557 231.873 760.217 232.236C759.889 232.588 759.414 232.764 758.793 232.764C758.16 232.764 757.68 232.588 757.352 232.236C757.035 231.873 756.877 231.439 756.877 230.936ZM773.225 252.68C773.998 252.68 774.713 252.521 775.369 252.205C776.025 251.889 776.564 251.455 776.986 250.904C777.408 250.342 777.648 249.703 777.707 248.988H780.801C780.742 250.113 780.361 251.162 779.658 252.135C778.967 253.096 778.059 253.875 776.934 254.473C775.809 255.059 774.572 255.352 773.225 255.352C771.795 255.352 770.547 255.1 769.48 254.596C768.426 254.092 767.547 253.4 766.844 252.521C766.152 251.643 765.631 250.635 765.279 249.498C764.939 248.35 764.77 247.137 764.77 245.859V245.121C764.77 243.844 764.939 242.637 765.279 241.5C765.631 240.352 766.152 239.338 766.844 238.459C767.547 237.58 768.426 236.889 769.48 236.385C770.547 235.881 771.795 235.629 773.225 235.629C774.713 235.629 776.014 235.934 777.127 236.543C778.24 237.141 779.113 237.961 779.746 239.004C780.391 240.035 780.742 241.207 780.801 242.52H777.707C777.648 241.734 777.426 241.025 777.039 240.393C776.664 239.76 776.148 239.256 775.492 238.881C774.848 238.494 774.092 238.301 773.225 238.301C772.229 238.301 771.391 238.5 770.711 238.898C770.043 239.285 769.51 239.812 769.111 240.48C768.725 241.137 768.443 241.869 768.268 242.678C768.104 243.475 768.021 244.289 768.021 245.121V245.859C768.021 246.691 768.104 247.512 768.268 248.32C768.432 249.129 768.707 249.861 769.094 250.518C769.492 251.174 770.025 251.701 770.693 252.1C771.373 252.486 772.217 252.68 773.225 252.68ZM787.727 228V255H784.457V228H787.727ZM799.346 235.98L791.049 244.857L786.408 249.674L786.145 246.211L789.467 242.238L795.373 235.98H799.346ZM796.375 255L789.59 245.93L791.277 243.029L800.207 255H796.375ZM813.777 249.955C813.777 249.486 813.672 249.053 813.461 248.654C813.262 248.244 812.846 247.875 812.213 247.547C811.592 247.207 810.654 246.914 809.4 246.668C808.346 246.445 807.391 246.182 806.535 245.877C805.691 245.572 804.971 245.203 804.373 244.77C803.787 244.336 803.336 243.826 803.02 243.24C802.703 242.654 802.545 241.969 802.545 241.184C802.545 240.434 802.709 239.725 803.037 239.057C803.377 238.389 803.852 237.797 804.461 237.281C805.082 236.766 805.826 236.361 806.693 236.068C807.561 235.775 808.527 235.629 809.594 235.629C811.117 235.629 812.418 235.898 813.496 236.438C814.574 236.977 815.4 237.697 815.975 238.6C816.549 239.49 816.836 240.48 816.836 241.57H813.584C813.584 241.043 813.426 240.533 813.109 240.041C812.805 239.537 812.354 239.121 811.756 238.793C811.17 238.465 810.449 238.301 809.594 238.301C808.691 238.301 807.959 238.441 807.396 238.723C806.846 238.992 806.441 239.338 806.184 239.76C805.938 240.182 805.814 240.627 805.814 241.096C805.814 241.447 805.873 241.764 805.99 242.045C806.119 242.314 806.342 242.566 806.658 242.801C806.975 243.023 807.42 243.234 807.994 243.434C808.568 243.633 809.301 243.832 810.191 244.031C811.75 244.383 813.033 244.805 814.041 245.297C815.049 245.789 815.799 246.393 816.291 247.107C816.783 247.822 817.029 248.689 817.029 249.709C817.029 250.541 816.854 251.303 816.502 251.994C816.162 252.686 815.664 253.283 815.008 253.787C814.363 254.279 813.59 254.666 812.688 254.947C811.797 255.217 810.795 255.352 809.682 255.352C808.006 255.352 806.588 255.053 805.428 254.455C804.268 253.857 803.389 253.084 802.791 252.135C802.193 251.186 801.895 250.184 801.895 249.129H805.164C805.211 250.02 805.469 250.729 805.938 251.256C806.406 251.771 806.98 252.141 807.66 252.363C808.34 252.574 809.014 252.68 809.682 252.68C810.572 252.68 811.316 252.562 811.914 252.328C812.523 252.094 812.986 251.771 813.303 251.361C813.619 250.951 813.777 250.482 813.777 249.955Z" fill="black"/>
</g>
<g filter="url(#filter2_d_207_3)">
<rect x="29" y="354" width="975" height="346" rx="35" fill="white"/>
<path d="M135 627L234.557 563.5L270.009 590.5L374.423 524.5L448.241 541.5L590.535 463L718.745 497.5L832.385 446L930 412" stroke="url(#paint0_linear_207_3)" stroke-width="5"/>
<line x1="134.999" y1="626.5" x2="929.999" y2="625.5" stroke="#757575"/>
<line x1="134" y1="627" x2="134" y2="406" stroke="#757575" stroke-width="2"/>
<path d="M116.743 617.934V620.318C116.743 621.6 116.629 622.682 116.399 623.562C116.17 624.443 115.841 625.152 115.411 625.689C114.981 626.227 114.462 626.617 113.854 626.86C113.252 627.097 112.572 627.215 111.812 627.215C111.211 627.215 110.656 627.14 110.147 626.989C109.639 626.839 109.181 626.599 108.772 626.27C108.371 625.933 108.028 625.496 107.741 624.959C107.455 624.422 107.236 623.77 107.086 623.004C106.936 622.238 106.86 621.342 106.86 620.318V617.934C106.86 616.652 106.975 615.577 107.204 614.711C107.44 613.844 107.773 613.15 108.203 612.627C108.633 612.097 109.148 611.717 109.75 611.488C110.359 611.259 111.039 611.145 111.791 611.145C112.4 611.145 112.958 611.22 113.467 611.37C113.982 611.513 114.441 611.746 114.842 612.068C115.243 612.383 115.583 612.806 115.862 613.336C116.149 613.859 116.367 614.5 116.518 615.259C116.668 616.018 116.743 616.91 116.743 617.934ZM114.745 620.641V617.601C114.745 616.899 114.702 616.283 114.616 615.753C114.537 615.216 114.419 614.757 114.262 614.378C114.104 613.998 113.904 613.69 113.66 613.454C113.424 613.218 113.148 613.046 112.833 612.938C112.525 612.824 112.178 612.767 111.791 612.767C111.318 612.767 110.899 612.856 110.534 613.035C110.169 613.207 109.861 613.483 109.61 613.862C109.367 614.242 109.181 614.74 109.052 615.355C108.923 615.971 108.858 616.72 108.858 617.601V620.641C108.858 621.342 108.898 621.962 108.977 622.499C109.062 623.036 109.188 623.502 109.353 623.896C109.517 624.282 109.718 624.601 109.954 624.852C110.19 625.102 110.463 625.288 110.771 625.41C111.086 625.525 111.433 625.582 111.812 625.582C112.299 625.582 112.726 625.489 113.091 625.303C113.456 625.117 113.76 624.826 114.004 624.433C114.255 624.032 114.441 623.52 114.562 622.896C114.684 622.266 114.745 621.514 114.745 620.641Z" fill="#686868"/>
<path d="M92.4229 431.367V433H82.1855V431.571L87.3096 425.867C87.9398 425.165 88.4268 424.571 88.7705 424.084C89.1214 423.59 89.3649 423.149 89.501 422.763C89.6442 422.369 89.7158 421.968 89.7158 421.56C89.7158 421.044 89.6084 420.578 89.3936 420.163C89.1859 419.741 88.8779 419.404 88.4697 419.153C88.0615 418.903 87.5674 418.777 86.9873 418.777C86.2926 418.777 85.7126 418.913 85.2471 419.186C84.7887 419.451 84.445 419.823 84.2158 420.303C83.9867 420.783 83.8721 421.334 83.8721 421.957H81.8848C81.8848 421.076 82.0781 420.271 82.4648 419.54C82.8516 418.81 83.4245 418.229 84.1836 417.8C84.9427 417.363 85.8773 417.145 86.9873 417.145C87.9756 417.145 88.8206 417.32 89.5225 417.671C90.2243 418.015 90.7614 418.502 91.1338 419.132C91.5133 419.755 91.7031 420.485 91.7031 421.323C91.7031 421.782 91.6243 422.247 91.4668 422.72C91.3164 423.185 91.1051 423.651 90.833 424.116C90.568 424.582 90.2565 425.04 89.8984 425.491C89.5475 425.942 89.1715 426.386 88.7705 426.823L84.5811 431.367H92.4229ZM97.0635 425.556L95.4736 425.147L96.2578 417.359H104.282V419.196H97.9443L97.4717 423.45C97.7581 423.285 98.1198 423.132 98.5566 422.988C99.0007 422.845 99.5091 422.773 100.082 422.773C100.805 422.773 101.453 422.899 102.026 423.149C102.599 423.393 103.086 423.744 103.487 424.202C103.896 424.66 104.207 425.212 104.422 425.856C104.637 426.501 104.744 427.221 104.744 428.016C104.744 428.768 104.64 429.459 104.433 430.089C104.232 430.719 103.928 431.271 103.52 431.743C103.111 432.209 102.596 432.57 101.973 432.828C101.357 433.086 100.63 433.215 99.792 433.215C99.1618 433.215 98.5638 433.129 97.998 432.957C97.4395 432.778 96.9382 432.509 96.4941 432.151C96.0573 431.786 95.6992 431.335 95.4199 430.798C95.1478 430.254 94.9759 429.616 94.9043 428.886H96.7949C96.8809 429.473 97.0527 429.967 97.3105 430.368C97.5684 430.769 97.9049 431.074 98.3203 431.281C98.7428 431.482 99.2334 431.582 99.792 431.582C100.265 431.582 100.684 431.5 101.049 431.335C101.414 431.17 101.722 430.934 101.973 430.626C102.223 430.318 102.413 429.946 102.542 429.509C102.678 429.072 102.746 428.581 102.746 428.037C102.746 427.543 102.678 427.085 102.542 426.662C102.406 426.24 102.202 425.871 101.93 425.556C101.665 425.241 101.339 424.997 100.952 424.825C100.565 424.646 100.121 424.557 99.6201 424.557C98.9541 424.557 98.4492 424.646 98.1055 424.825C97.7689 425.004 97.4215 425.248 97.0635 425.556ZM116.743 423.934V426.318C116.743 427.6 116.629 428.682 116.399 429.562C116.17 430.443 115.841 431.152 115.411 431.689C114.981 432.227 114.462 432.617 113.854 432.86C113.252 433.097 112.572 433.215 111.812 433.215C111.211 433.215 110.656 433.14 110.147 432.989C109.639 432.839 109.181 432.599 108.772 432.27C108.371 431.933 108.028 431.496 107.741 430.959C107.455 430.422 107.236 429.77 107.086 429.004C106.936 428.238 106.86 427.342 106.86 426.318V423.934C106.86 422.652 106.975 421.577 107.204 420.711C107.44 419.844 107.773 419.15 108.203 418.627C108.633 418.097 109.148 417.717 109.75 417.488C110.359 417.259 111.039 417.145 111.791 417.145C112.4 417.145 112.958 417.22 113.467 417.37C113.982 417.513 114.441 417.746 114.842 418.068C115.243 418.383 115.583 418.806 115.862 419.336C116.149 419.859 116.367 420.5 116.518 421.259C116.668 422.018 116.743 422.91 116.743 423.934ZM114.745 426.641V423.601C114.745 422.899 114.702 422.283 114.616 421.753C114.537 421.216 114.419 420.757 114.262 420.378C114.104 419.998 113.904 419.69 113.66 419.454C113.424 419.218 113.148 419.046 112.833 418.938C112.525 418.824 112.178 418.767 111.791 418.767C111.318 418.767 110.899 418.856 110.534 419.035C110.169 419.207 109.861 419.483 109.61 419.862C109.367 420.242 109.181 420.74 109.052 421.355C108.923 421.971 108.858 422.72 108.858 423.601V426.641C108.858 427.342 108.898 427.962 108.977 428.499C109.062 429.036 109.188 429.502 109.353 429.896C109.517 430.282 109.718 430.601 109.954 430.852C110.19 431.102 110.463 431.288 110.771 431.41C111.086 431.525 111.433 431.582 111.812 431.582C112.299 431.582 112.726 431.489 113.091 431.303C113.456 431.117 113.76 430.826 114.004 430.433C114.255 430.032 114.441 429.52 114.562 428.896C114.684 428.266 114.745 427.514 114.745 426.641Z" fill="#686868"/>
<path d="M88.7061 518.273V534H86.7188V520.755L82.7119 522.216V520.422L88.3945 518.273H88.7061ZM104.798 532.367V534H94.5605V532.571L99.6846 526.867C100.315 526.165 100.802 525.571 101.146 525.084C101.496 524.59 101.74 524.149 101.876 523.763C102.019 523.369 102.091 522.968 102.091 522.56C102.091 522.044 101.983 521.578 101.769 521.163C101.561 520.741 101.253 520.404 100.845 520.153C100.437 519.903 99.9424 519.777 99.3623 519.777C98.6676 519.777 98.0876 519.913 97.6221 520.186C97.1637 520.451 96.82 520.823 96.5908 521.303C96.3617 521.783 96.2471 522.334 96.2471 522.957H94.2598C94.2598 522.076 94.4531 521.271 94.8398 520.54C95.2266 519.81 95.7995 519.229 96.5586 518.8C97.3177 518.363 98.2523 518.145 99.3623 518.145C100.351 518.145 101.196 518.32 101.897 518.671C102.599 519.015 103.136 519.502 103.509 520.132C103.888 520.755 104.078 521.485 104.078 522.323C104.078 522.782 103.999 523.247 103.842 523.72C103.691 524.185 103.48 524.651 103.208 525.116C102.943 525.582 102.632 526.04 102.273 526.491C101.923 526.942 101.547 527.386 101.146 527.823L96.9561 532.367H104.798ZM109.438 526.556L107.849 526.147L108.633 518.359H116.657V520.196H110.319L109.847 524.45C110.133 524.285 110.495 524.132 110.932 523.988C111.376 523.845 111.884 523.773 112.457 523.773C113.18 523.773 113.828 523.899 114.401 524.149C114.974 524.393 115.461 524.744 115.862 525.202C116.271 525.66 116.582 526.212 116.797 526.856C117.012 527.501 117.119 528.221 117.119 529.016C117.119 529.768 117.015 530.459 116.808 531.089C116.607 531.719 116.303 532.271 115.895 532.743C115.486 533.209 114.971 533.57 114.348 533.828C113.732 534.086 113.005 534.215 112.167 534.215C111.537 534.215 110.939 534.129 110.373 533.957C109.814 533.778 109.313 533.509 108.869 533.151C108.432 532.786 108.074 532.335 107.795 531.798C107.523 531.254 107.351 530.616 107.279 529.886H109.17C109.256 530.473 109.428 530.967 109.686 531.368C109.943 531.769 110.28 532.074 110.695 532.281C111.118 532.482 111.608 532.582 112.167 532.582C112.64 532.582 113.059 532.5 113.424 532.335C113.789 532.17 114.097 531.934 114.348 531.626C114.598 531.318 114.788 530.946 114.917 530.509C115.053 530.072 115.121 529.581 115.121 529.037C115.121 528.543 115.053 528.085 114.917 527.662C114.781 527.24 114.577 526.871 114.305 526.556C114.04 526.241 113.714 525.997 113.327 525.825C112.94 525.646 112.496 525.557 111.995 525.557C111.329 525.557 110.824 525.646 110.48 525.825C110.144 526.004 109.797 526.248 109.438 526.556Z" fill="#686868"/>
<path d="M169.956 648.273V664H167.969V650.755L163.962 652.216V650.422L169.645 648.273H169.956ZM186.048 662.367V664H175.811V662.571L180.935 656.867C181.565 656.165 182.052 655.571 182.396 655.084C182.746 654.59 182.99 654.149 183.126 653.763C183.269 653.369 183.341 652.968 183.341 652.56C183.341 652.044 183.233 651.578 183.019 651.163C182.811 650.741 182.503 650.404 182.095 650.153C181.687 649.903 181.192 649.777 180.612 649.777C179.918 649.777 179.338 649.913 178.872 650.186C178.414 650.451 178.07 650.823 177.841 651.303C177.612 651.783 177.497 652.334 177.497 652.957H175.51C175.51 652.076 175.703 651.271 176.09 650.54C176.477 649.81 177.049 649.229 177.809 648.8C178.568 648.363 179.502 648.145 180.612 648.145C181.601 648.145 182.446 648.32 183.147 648.671C183.849 649.015 184.386 649.502 184.759 650.132C185.138 650.755 185.328 651.485 185.328 652.323C185.328 652.782 185.249 653.247 185.092 653.72C184.941 654.185 184.73 654.651 184.458 655.116C184.193 655.582 183.882 656.04 183.523 656.491C183.173 656.942 182.797 657.386 182.396 657.823L178.206 662.367H186.048Z" fill="#686868"/>
<path d="M248.956 648.273V664H246.969V650.755L242.962 652.216V650.422L248.645 648.273H248.956ZM265.37 658.736V660.369H254.069V659.198L261.073 648.359H262.695L260.955 651.496L256.325 658.736H265.37ZM263.189 648.359V664H261.202V648.359H263.189Z" fill="#686868"/>
<path d="M327.956 648.273V664H325.969V650.755L321.962 652.216V650.422L327.645 648.273H327.956ZM341.427 648.338H341.599V650.024H341.427C340.374 650.024 339.493 650.196 338.784 650.54C338.075 650.877 337.513 651.331 337.098 651.904C336.682 652.47 336.382 653.107 336.195 653.816C336.016 654.525 335.927 655.245 335.927 655.976V658.274C335.927 658.969 336.009 659.585 336.174 660.122C336.339 660.652 336.564 661.1 336.851 661.465C337.137 661.83 337.459 662.106 337.817 662.292C338.183 662.478 338.562 662.571 338.956 662.571C339.414 662.571 339.823 662.485 340.181 662.313C340.539 662.134 340.84 661.887 341.083 661.572C341.334 661.25 341.523 660.87 341.652 660.434C341.781 659.997 341.846 659.517 341.846 658.994C341.846 658.529 341.788 658.081 341.674 657.651C341.559 657.215 341.384 656.828 341.147 656.491C340.911 656.147 340.614 655.879 340.256 655.686C339.905 655.485 339.486 655.385 338.999 655.385C338.448 655.385 337.932 655.521 337.452 655.793C336.979 656.058 336.589 656.409 336.281 656.846C335.98 657.275 335.809 657.744 335.766 658.253L334.713 658.242C334.813 657.44 334.999 656.756 335.271 656.19C335.551 655.618 335.895 655.152 336.303 654.794C336.718 654.429 337.18 654.164 337.688 653.999C338.204 653.827 338.748 653.741 339.321 653.741C340.102 653.741 340.775 653.888 341.341 654.182C341.907 654.475 342.372 654.869 342.737 655.363C343.103 655.85 343.371 656.402 343.543 657.018C343.722 657.626 343.812 658.253 343.812 658.897C343.812 659.635 343.708 660.326 343.5 660.971C343.292 661.615 342.981 662.181 342.565 662.668C342.157 663.155 341.652 663.535 341.051 663.807C340.449 664.079 339.751 664.215 338.956 664.215C338.111 664.215 337.373 664.043 336.743 663.699C336.113 663.348 335.59 662.883 335.175 662.303C334.759 661.723 334.448 661.078 334.24 660.369C334.033 659.66 333.929 658.94 333.929 658.21V657.275C333.929 656.173 334.04 655.091 334.262 654.031C334.484 652.971 334.867 652.012 335.411 651.152C335.963 650.293 336.725 649.609 337.699 649.101C338.673 648.592 339.916 648.338 341.427 648.338Z" fill="#686868"/>
<path d="M406.956 648.273V664H404.969V650.755L400.962 652.216V650.422L406.645 648.273H406.956ZM422.661 659.768C422.661 660.72 422.439 661.529 421.995 662.195C421.558 662.854 420.964 663.355 420.212 663.699C419.467 664.043 418.626 664.215 417.688 664.215C416.749 664.215 415.904 664.043 415.152 663.699C414.4 663.355 413.806 662.854 413.369 662.195C412.932 661.529 412.714 660.72 412.714 659.768C412.714 659.145 412.832 658.575 413.068 658.06C413.312 657.537 413.652 657.082 414.089 656.695C414.533 656.309 415.056 656.011 415.657 655.804C416.266 655.589 416.936 655.481 417.666 655.481C418.626 655.481 419.481 655.668 420.233 656.04C420.985 656.405 421.576 656.91 422.006 657.555C422.443 658.199 422.661 658.937 422.661 659.768ZM420.663 659.725C420.663 659.145 420.538 658.632 420.287 658.188C420.036 657.737 419.686 657.386 419.234 657.136C418.783 656.885 418.26 656.76 417.666 656.76C417.057 656.76 416.531 656.885 416.087 657.136C415.65 657.386 415.31 657.737 415.066 658.188C414.823 658.632 414.701 659.145 414.701 659.725C414.701 660.326 414.819 660.842 415.056 661.271C415.299 661.694 415.643 662.02 416.087 662.249C416.538 662.471 417.072 662.582 417.688 662.582C418.303 662.582 418.833 662.471 419.277 662.249C419.721 662.02 420.062 661.694 420.298 661.271C420.541 660.842 420.663 660.326 420.663 659.725ZM422.296 652.431C422.296 653.19 422.095 653.874 421.694 654.482C421.293 655.091 420.745 655.571 420.051 655.922C419.356 656.273 418.568 656.448 417.688 656.448C416.792 656.448 415.994 656.273 415.292 655.922C414.597 655.571 414.053 655.091 413.659 654.482C413.265 653.874 413.068 653.19 413.068 652.431C413.068 651.521 413.265 650.748 413.659 650.11C414.06 649.473 414.608 648.986 415.303 648.649C415.997 648.313 416.789 648.145 417.677 648.145C418.572 648.145 419.367 648.313 420.062 648.649C420.756 648.986 421.3 649.473 421.694 650.11C422.095 650.748 422.296 651.521 422.296 652.431ZM420.309 652.463C420.309 651.94 420.198 651.478 419.976 651.077C419.754 650.676 419.446 650.361 419.052 650.132C418.658 649.896 418.2 649.777 417.677 649.777C417.154 649.777 416.696 649.888 416.302 650.11C415.915 650.325 415.611 650.633 415.389 651.034C415.174 651.435 415.066 651.911 415.066 652.463C415.066 653 415.174 653.469 415.389 653.87C415.611 654.271 415.919 654.583 416.312 654.805C416.706 655.027 417.165 655.138 417.688 655.138C418.21 655.138 418.665 655.027 419.052 654.805C419.446 654.583 419.754 654.271 419.976 653.87C420.198 653.469 420.309 653 420.309 652.463Z" fill="#686868"/>
<path d="M489.673 662.367V664H479.436V662.571L484.56 656.867C485.19 656.165 485.677 655.571 486.021 655.084C486.371 654.59 486.615 654.149 486.751 653.763C486.894 653.369 486.966 652.968 486.966 652.56C486.966 652.044 486.858 651.578 486.644 651.163C486.436 650.741 486.128 650.404 485.72 650.153C485.312 649.903 484.817 649.777 484.237 649.777C483.543 649.777 482.963 649.913 482.497 650.186C482.039 650.451 481.695 650.823 481.466 651.303C481.237 651.783 481.122 652.334 481.122 652.957H479.135C479.135 652.076 479.328 651.271 479.715 650.54C480.102 649.81 480.674 649.229 481.434 648.8C482.193 648.363 483.127 648.145 484.237 648.145C485.226 648.145 486.071 648.32 486.772 648.671C487.474 649.015 488.011 649.502 488.384 650.132C488.763 650.755 488.953 651.485 488.953 652.323C488.953 652.782 488.874 653.247 488.717 653.72C488.566 654.185 488.355 654.651 488.083 655.116C487.818 655.582 487.507 656.04 487.148 656.491C486.798 656.942 486.422 657.386 486.021 657.823L481.831 662.367H489.673ZM501.618 654.934V657.318C501.618 658.6 501.504 659.682 501.274 660.562C501.045 661.443 500.716 662.152 500.286 662.689C499.856 663.227 499.337 663.617 498.729 663.86C498.127 664.097 497.447 664.215 496.688 664.215C496.086 664.215 495.531 664.14 495.022 663.989C494.514 663.839 494.056 663.599 493.647 663.27C493.246 662.933 492.903 662.496 492.616 661.959C492.33 661.422 492.111 660.77 491.961 660.004C491.811 659.238 491.735 658.342 491.735 657.318V654.934C491.735 653.652 491.85 652.577 492.079 651.711C492.315 650.844 492.648 650.15 493.078 649.627C493.508 649.097 494.023 648.717 494.625 648.488C495.234 648.259 495.914 648.145 496.666 648.145C497.275 648.145 497.833 648.22 498.342 648.37C498.857 648.513 499.316 648.746 499.717 649.068C500.118 649.383 500.458 649.806 500.737 650.336C501.024 650.859 501.242 651.5 501.393 652.259C501.543 653.018 501.618 653.91 501.618 654.934ZM499.62 657.641V654.601C499.62 653.899 499.577 653.283 499.491 652.753C499.412 652.216 499.294 651.757 499.137 651.378C498.979 650.998 498.779 650.69 498.535 650.454C498.299 650.218 498.023 650.046 497.708 649.938C497.4 649.824 497.053 649.767 496.666 649.767C496.193 649.767 495.774 649.856 495.409 650.035C495.044 650.207 494.736 650.483 494.485 650.862C494.242 651.242 494.056 651.74 493.927 652.355C493.798 652.971 493.733 653.72 493.733 654.601V657.641C493.733 658.342 493.773 658.962 493.852 659.499C493.938 660.036 494.063 660.502 494.228 660.896C494.392 661.282 494.593 661.601 494.829 661.852C495.065 662.102 495.338 662.288 495.646 662.41C495.961 662.525 496.308 662.582 496.688 662.582C497.174 662.582 497.601 662.489 497.966 662.303C498.331 662.117 498.635 661.826 498.879 661.433C499.13 661.032 499.316 660.52 499.438 659.896C499.559 659.266 499.62 658.514 499.62 657.641Z" fill="#686868"/>
<path d="M571.673 662.367V664H561.436V662.571L566.56 656.867C567.19 656.165 567.677 655.571 568.021 655.084C568.371 654.59 568.615 654.149 568.751 653.763C568.894 653.369 568.966 652.968 568.966 652.56C568.966 652.044 568.858 651.578 568.644 651.163C568.436 650.741 568.128 650.404 567.72 650.153C567.312 649.903 566.817 649.777 566.237 649.777C565.543 649.777 564.963 649.913 564.497 650.186C564.039 650.451 563.695 650.823 563.466 651.303C563.237 651.783 563.122 652.334 563.122 652.957H561.135C561.135 652.076 561.328 651.271 561.715 650.54C562.102 649.81 562.674 649.229 563.434 648.8C564.193 648.363 565.127 648.145 566.237 648.145C567.226 648.145 568.071 648.32 568.772 648.671C569.474 649.015 570.011 649.502 570.384 650.132C570.763 650.755 570.953 651.485 570.953 652.323C570.953 652.782 570.874 653.247 570.717 653.72C570.566 654.185 570.355 654.651 570.083 655.116C569.818 655.582 569.507 656.04 569.148 656.491C568.798 656.942 568.422 657.386 568.021 657.823L563.831 662.367H571.673ZM584.048 662.367V664H573.811V662.571L578.935 656.867C579.565 656.165 580.052 655.571 580.396 655.084C580.746 654.59 580.99 654.149 581.126 653.763C581.269 653.369 581.341 652.968 581.341 652.56C581.341 652.044 581.233 651.578 581.019 651.163C580.811 650.741 580.503 650.404 580.095 650.153C579.687 649.903 579.192 649.777 578.612 649.777C577.918 649.777 577.338 649.913 576.872 650.186C576.414 650.451 576.07 650.823 575.841 651.303C575.612 651.783 575.497 652.334 575.497 652.957H573.51C573.51 652.076 573.703 651.271 574.09 650.54C574.477 649.81 575.049 649.229 575.809 648.8C576.568 648.363 577.502 648.145 578.612 648.145C579.601 648.145 580.446 648.32 581.147 648.671C581.849 649.015 582.386 649.502 582.759 650.132C583.138 650.755 583.328 651.485 583.328 652.323C583.328 652.782 583.249 653.247 583.092 653.72C582.941 654.185 582.73 654.651 582.458 655.116C582.193 655.582 581.882 656.04 581.523 656.491C581.173 656.942 580.797 657.386 580.396 657.823L576.206 662.367H584.048Z" fill="#686868"/>
<path d="M650.673 662.367V664H640.436V662.571L645.56 656.867C646.19 656.165 646.677 655.571 647.021 655.084C647.371 654.59 647.615 654.149 647.751 653.763C647.894 653.369 647.966 652.968 647.966 652.56C647.966 652.044 647.858 651.578 647.644 651.163C647.436 650.741 647.128 650.404 646.72 650.153C646.312 649.903 645.817 649.777 645.237 649.777C644.543 649.777 643.963 649.913 643.497 650.186C643.039 650.451 642.695 650.823 642.466 651.303C642.237 651.783 642.122 652.334 642.122 652.957H640.135C640.135 652.076 640.328 651.271 640.715 650.54C641.102 649.81 641.674 649.229 642.434 648.8C643.193 648.363 644.127 648.145 645.237 648.145C646.226 648.145 647.071 648.32 647.772 648.671C648.474 649.015 649.011 649.502 649.384 650.132C649.763 650.755 649.953 651.485 649.953 652.323C649.953 652.782 649.874 653.247 649.717 653.72C649.566 654.185 649.355 654.651 649.083 655.116C648.818 655.582 648.507 656.04 648.148 656.491C647.798 656.942 647.422 657.386 647.021 657.823L642.831 662.367H650.673ZM663.37 658.736V660.369H652.069V659.198L659.073 648.359H660.695L658.955 651.496L654.325 658.736H663.37ZM661.189 648.359V664H659.202V648.359H661.189Z" fill="#686868"/>
<path d="M729.673 662.367V664H719.436V662.571L724.56 656.867C725.19 656.165 725.677 655.571 726.021 655.084C726.371 654.59 726.615 654.149 726.751 653.763C726.894 653.369 726.966 652.968 726.966 652.56C726.966 652.044 726.858 651.578 726.644 651.163C726.436 650.741 726.128 650.404 725.72 650.153C725.312 649.903 724.817 649.777 724.237 649.777C723.543 649.777 722.963 649.913 722.497 650.186C722.039 650.451 721.695 650.823 721.466 651.303C721.237 651.783 721.122 652.334 721.122 652.957H719.135C719.135 652.076 719.328 651.271 719.715 650.54C720.102 649.81 720.674 649.229 721.434 648.8C722.193 648.363 723.127 648.145 724.237 648.145C725.226 648.145 726.071 648.32 726.772 648.671C727.474 649.015 728.011 649.502 728.384 650.132C728.763 650.755 728.953 651.485 728.953 652.323C728.953 652.782 728.874 653.247 728.717 653.72C728.566 654.185 728.355 654.651 728.083 655.116C727.818 655.582 727.507 656.04 727.148 656.491C726.798 656.942 726.422 657.386 726.021 657.823L721.831 662.367H729.673ZM739.427 648.338H739.599V650.024H739.427C738.374 650.024 737.493 650.196 736.784 650.54C736.075 650.877 735.513 651.331 735.098 651.904C734.682 652.47 734.382 653.107 734.195 653.816C734.016 654.525 733.927 655.245 733.927 655.976V658.274C733.927 658.969 734.009 659.585 734.174 660.122C734.339 660.652 734.564 661.1 734.851 661.465C735.137 661.83 735.459 662.106 735.817 662.292C736.183 662.478 736.562 662.571 736.956 662.571C737.414 662.571 737.823 662.485 738.181 662.313C738.539 662.134 738.84 661.887 739.083 661.572C739.334 661.25 739.523 660.87 739.652 660.434C739.781 659.997 739.846 659.517 739.846 658.994C739.846 658.529 739.788 658.081 739.674 657.651C739.559 657.215 739.384 656.828 739.147 656.491C738.911 656.147 738.614 655.879 738.256 655.686C737.905 655.485 737.486 655.385 736.999 655.385C736.448 655.385 735.932 655.521 735.452 655.793C734.979 656.058 734.589 656.409 734.281 656.846C733.98 657.275 733.809 657.744 733.766 658.253L732.713 658.242C732.813 657.44 732.999 656.756 733.271 656.19C733.551 655.618 733.895 655.152 734.303 654.794C734.718 654.429 735.18 654.164 735.688 653.999C736.204 653.827 736.748 653.741 737.321 653.741C738.102 653.741 738.775 653.888 739.341 654.182C739.907 654.475 740.372 654.869 740.737 655.363C741.103 655.85 741.371 656.402 741.543 657.018C741.722 657.626 741.812 658.253 741.812 658.897C741.812 659.635 741.708 660.326 741.5 660.971C741.292 661.615 740.981 662.181 740.565 662.668C740.157 663.155 739.652 663.535 739.051 663.807C738.449 664.079 737.751 664.215 736.956 664.215C736.111 664.215 735.373 664.043 734.743 663.699C734.113 663.348 733.59 662.883 733.175 662.303C732.759 661.723 732.448 661.078 732.24 660.369C732.033 659.66 731.929 658.94 731.929 658.21V657.275C731.929 656.173 732.04 655.091 732.262 654.031C732.484 652.971 732.867 652.012 733.411 651.152C733.963 650.293 734.725 649.609 735.699 649.101C736.673 648.592 737.916 648.338 739.427 648.338Z" fill="#686868"/>
<path d="M808.673 662.367V664H798.436V662.571L803.56 656.867C804.19 656.165 804.677 655.571 805.021 655.084C805.371 654.59 805.615 654.149 805.751 653.763C805.894 653.369 805.966 652.968 805.966 652.56C805.966 652.044 805.858 651.578 805.644 651.163C805.436 650.741 805.128 650.404 804.72 650.153C804.312 649.903 803.817 649.777 803.237 649.777C802.543 649.777 801.963 649.913 801.497 650.186C801.039 650.451 800.695 650.823 800.466 651.303C800.237 651.783 800.122 652.334 800.122 652.957H798.135C798.135 652.076 798.328 651.271 798.715 650.54C799.102 649.81 799.674 649.229 800.434 648.8C801.193 648.363 802.127 648.145 803.237 648.145C804.226 648.145 805.071 648.32 805.772 648.671C806.474 649.015 807.011 649.502 807.384 650.132C807.763 650.755 807.953 651.485 807.953 652.323C807.953 652.782 807.874 653.247 807.717 653.72C807.566 654.185 807.355 654.651 807.083 655.116C806.818 655.582 806.507 656.04 806.148 656.491C805.798 656.942 805.422 657.386 805.021 657.823L800.831 662.367H808.673ZM820.661 659.768C820.661 660.72 820.439 661.529 819.995 662.195C819.558 662.854 818.964 663.355 818.212 663.699C817.467 664.043 816.626 664.215 815.688 664.215C814.749 664.215 813.904 664.043 813.152 663.699C812.4 663.355 811.806 662.854 811.369 662.195C810.932 661.529 810.714 660.72 810.714 659.768C810.714 659.145 810.832 658.575 811.068 658.06C811.312 657.537 811.652 657.082 812.089 656.695C812.533 656.309 813.056 656.011 813.657 655.804C814.266 655.589 814.936 655.481 815.666 655.481C816.626 655.481 817.481 655.668 818.233 656.04C818.985 656.405 819.576 656.91 820.006 657.555C820.443 658.199 820.661 658.937 820.661 659.768ZM818.663 659.725C818.663 659.145 818.538 658.632 818.287 658.188C818.036 657.737 817.686 657.386 817.234 657.136C816.783 656.885 816.26 656.76 815.666 656.76C815.057 656.76 814.531 656.885 814.087 657.136C813.65 657.386 813.31 657.737 813.066 658.188C812.823 658.632 812.701 659.145 812.701 659.725C812.701 660.326 812.819 660.842 813.056 661.271C813.299 661.694 813.643 662.02 814.087 662.249C814.538 662.471 815.072 662.582 815.688 662.582C816.303 662.582 816.833 662.471 817.277 662.249C817.721 662.02 818.062 661.694 818.298 661.271C818.541 660.842 818.663 660.326 818.663 659.725ZM820.296 652.431C820.296 653.19 820.095 653.874 819.694 654.482C819.293 655.091 818.745 655.571 818.051 655.922C817.356 656.273 816.568 656.448 815.688 656.448C814.792 656.448 813.994 656.273 813.292 655.922C812.597 655.571 812.053 655.091 811.659 654.482C811.265 653.874 811.068 653.19 811.068 652.431C811.068 651.521 811.265 650.748 811.659 650.11C812.06 649.473 812.608 648.986 813.303 648.649C813.997 648.313 814.789 648.145 815.677 648.145C816.572 648.145 817.367 648.313 818.062 648.649C818.756 648.986 819.3 649.473 819.694 650.11C820.095 650.748 820.296 651.521 820.296 652.431ZM818.309 652.463C818.309 651.94 818.198 651.478 817.976 651.077C817.754 650.676 817.446 650.361 817.052 650.132C816.658 649.896 816.2 649.777 815.677 649.777C815.154 649.777 814.696 649.888 814.302 650.11C813.915 650.325 813.611 650.633 813.389 651.034C813.174 651.435 813.066 651.911 813.066 652.463C813.066 653 813.174 653.469 813.389 653.87C813.611 654.271 813.919 654.583 814.312 654.805C814.706 655.027 815.165 655.138 815.688 655.138C816.21 655.138 816.665 655.027 817.052 654.805C817.446 654.583 817.754 654.271 817.976 653.87C818.198 653.469 818.309 653 818.309 652.463Z" fill="#686868"/>
<path d="M880.325 655.202H881.743C882.438 655.202 883.011 655.088 883.462 654.858C883.92 654.622 884.26 654.303 884.482 653.902C884.712 653.494 884.826 653.036 884.826 652.527C884.826 651.926 884.726 651.421 884.525 651.013C884.325 650.604 884.024 650.297 883.623 650.089C883.222 649.881 882.714 649.777 882.098 649.777C881.539 649.777 881.045 649.888 880.615 650.11C880.193 650.325 879.86 650.633 879.616 651.034C879.38 651.435 879.262 651.908 879.262 652.452H877.274C877.274 651.657 877.475 650.934 877.876 650.282C878.277 649.631 878.839 649.111 879.562 648.725C880.293 648.338 881.138 648.145 882.098 648.145C883.043 648.145 883.87 648.313 884.579 648.649C885.288 648.979 885.84 649.473 886.233 650.132C886.627 650.784 886.824 651.596 886.824 652.57C886.824 652.964 886.731 653.387 886.545 653.838C886.366 654.282 886.083 654.697 885.696 655.084C885.317 655.471 884.823 655.789 884.214 656.04C883.605 656.284 882.875 656.405 882.022 656.405H880.325V655.202ZM880.325 656.835V655.643H882.022C883.018 655.643 883.841 655.761 884.493 655.997C885.145 656.233 885.657 656.549 886.029 656.942C886.409 657.336 886.674 657.77 886.824 658.242C886.982 658.708 887.061 659.173 887.061 659.639C887.061 660.369 886.935 661.017 886.685 661.583C886.441 662.149 886.094 662.629 885.643 663.022C885.199 663.416 884.676 663.714 884.074 663.914C883.473 664.115 882.817 664.215 882.108 664.215C881.428 664.215 880.787 664.118 880.186 663.925C879.591 663.731 879.065 663.452 878.606 663.087C878.148 662.715 877.79 662.26 877.532 661.723C877.274 661.178 877.146 660.559 877.146 659.864H879.133C879.133 660.409 879.251 660.885 879.487 661.293C879.731 661.701 880.075 662.02 880.519 662.249C880.97 662.471 881.5 662.582 882.108 662.582C882.717 662.582 883.24 662.478 883.677 662.271C884.121 662.056 884.461 661.733 884.697 661.304C884.941 660.874 885.062 660.333 885.062 659.682C885.062 659.03 884.926 658.496 884.654 658.081C884.382 657.659 883.995 657.347 883.494 657.146C883 656.939 882.416 656.835 881.743 656.835H880.325ZM899.618 654.934V657.318C899.618 658.6 899.504 659.682 899.274 660.562C899.045 661.443 898.716 662.152 898.286 662.689C897.856 663.227 897.337 663.617 896.729 663.86C896.127 664.097 895.447 664.215 894.688 664.215C894.086 664.215 893.531 664.14 893.022 663.989C892.514 663.839 892.056 663.599 891.647 663.27C891.246 662.933 890.903 662.496 890.616 661.959C890.33 661.422 890.111 660.77 889.961 660.004C889.811 659.238 889.735 658.342 889.735 657.318V654.934C889.735 653.652 889.85 652.577 890.079 651.711C890.315 650.844 890.648 650.15 891.078 649.627C891.508 649.097 892.023 648.717 892.625 648.488C893.234 648.259 893.914 648.145 894.666 648.145C895.275 648.145 895.833 648.22 896.342 648.37C896.857 648.513 897.316 648.746 897.717 649.068C898.118 649.383 898.458 649.806 898.737 650.336C899.024 650.859 899.242 651.5 899.393 652.259C899.543 653.018 899.618 653.91 899.618 654.934ZM897.62 657.641V654.601C897.62 653.899 897.577 653.283 897.491 652.753C897.412 652.216 897.294 651.757 897.137 651.378C896.979 650.998 896.779 650.69 896.535 650.454C896.299 650.218 896.023 650.046 895.708 649.938C895.4 649.824 895.053 649.767 894.666 649.767C894.193 649.767 893.774 649.856 893.409 650.035C893.044 650.207 892.736 650.483 892.485 650.862C892.242 651.242 892.056 651.74 891.927 652.355C891.798 652.971 891.733 653.72 891.733 654.601V657.641C891.733 658.342 891.773 658.962 891.852 659.499C891.938 660.036 892.063 660.502 892.228 660.896C892.392 661.282 892.593 661.601 892.829 661.852C893.065 662.102 893.338 662.288 893.646 662.41C893.961 662.525 894.308 662.582 894.688 662.582C895.174 662.582 895.601 662.489 895.966 662.303C896.331 662.117 896.635 661.826 896.879 661.433C897.13 661.032 897.316 660.52 897.438 659.896C897.559 659.266 897.62 658.514 897.62 657.641Z" fill="#686868"/>
</g>
<defs>
<filter id="filter0_d_207_3" x="0" y="0" width="525" height="334" filterUnits="userSpaceOnUse" color-interpolation-filters="sRGB">
<feFlood flood-opacity="0" result="BackgroundImageFix"/>
<feColorMatrix in="SourceAlpha" type="matrix" values="0 0 0 0 0 0 0 0 0 0 0 0 0 0 0 0 0 0 127 0" result="hardAlpha"/>
<feOffset/>
<feGaussianBlur stdDeviation="14.5"/>
<feComposite in2="hardAlpha" operator="out"/>
<feColorMatrix type="matrix" values="0 0 0 0 0.554167 0 0 0 0 0.554167 0 0 0 0 0.554167 0 0 0 0.25 0"/>
<feBlend mode="normal" in2="BackgroundImageFix" result="effect1_dropShadow_207_3"/>
<feBlend mode="normal" in="SourceGraphic" in2="effect1_dropShadow_207_3" result="shape"/>
</filter>
<filter id="filter1_d_207_3" x="508" y="0" width="525" height="334" filterUnits="userSpaceOnUse" color-interpolation-filters="sRGB">
<feFlood flood-opacity="0" result="BackgroundImageFix"/>
<feColorMatrix in="SourceAlpha" type="matrix" values="0 0 0 0 0 0 0 0 0 0 0 0 0 0 0 0 0 0 127 0" result="hardAlpha"/>
<feOffset/>
<feGaussianBlur stdDeviation="14.5"/>
<feComposite in2="hardAlpha" operator="out"/>
<feColorMatrix type="matrix" values="0 0 0 0 0.554167 0 0 0 0 0.554167 0 0 0 0 0.554167 0 0 0 0.25 0"/>
<feBlend mode="normal" in2="BackgroundImageFix" result="effect1_dropShadow_207_3"/>
<feBlend mode="normal" in="SourceGraphic" in2="effect1_dropShadow_207_3" result="shape"/>
</filter>
<filter id="filter2_d_207_3" x="0" y="325" width="1033" height="404" filterUnits="userSpaceOnUse" color-interpolation-filters="sRGB">
<feFlood flood-opacity="0" result="BackgroundImageFix"/>
<feColorMatrix in="SourceAlpha" type="matrix" values="0 0 0 0 0 0 0 0 0 0 0 0 0 0 0 0 0 0 127 0" result="hardAlpha"/>
<feOffset/>
<feGaussianBlur stdDeviation="14.5"/>
<feComposite in2="hardAlpha" operator="out"/>
<feColorMatrix type="matrix" values="0 0 0 0 0.554167 0 0 0 0 0.554167 0 0 0 0 0.554167 0 0 0 0.25 0"/>
<feBlend mode="normal" in2="BackgroundImageFix" result="effect1_dropShadow_207_3"/>
<feBlend mode="normal" in="SourceGraphic" in2="effect1_dropShadow_207_3" result="shape"/>
</filter>
<linearGradient id="paint0_linear_207_3" x1="258.023" y1="430.5" x2="890.832" y2="639.187" gradientUnits="userSpaceOnUse">
<stop stop-color="#E81CFF"/>
<stop offset="1" stop-color="#0095F6"/>
</linearGradient>
</defs>
</svg>
