<svg viewBox="0 0 100 88" fill="none" xmlns="http://www.w3.org/2000/svg">
   <path
      d="M12.5 0.5C9.18479 0.5 6.00537 1.81696 3.66117 4.16116C1.31696 6.50537 0 9.68479 0 13L0 63.0625C0.016522 66.3669 1.34077 69.5303 3.68319 71.861C6.02561 74.1917 9.19559 75.5 12.5 75.5H46.875C47.7038 75.5 48.4987 75.1708 49.0847 74.5847C49.6708 73.9987 50 73.2038 50 72.375C50 71.5462 49.6708 70.7513 49.0847 70.1653C48.4987 69.5792 47.7038 69.25 46.875 69.25H12.5C11.1242 69.2502 9.78684 68.7964 8.69524 67.959C7.60364 67.1217 6.81882 65.9476 6.4625 64.6187L41.7125 42.925L50 47.8938L93.75 21.6437V41.125C93.75 41.9538 94.0792 42.7487 94.6653 43.3347C95.2513 43.9208 96.0462 44.25 96.875 44.25C97.7038 44.25 98.4987 43.9208 99.0847 43.3347C99.6708 42.7487 100 41.9538 100 41.125V13C100 9.68479 98.683 6.50537 96.3388 4.16116C93.9946 1.81696 90.8152 0.5 87.5 0.5H12.5ZM35.675 39.3L6.25 57.4062V21.6437L35.675 39.3ZM6.25 14.3563V13C6.25 11.3424 6.90848 9.75268 8.08058 8.58058C9.25268 7.40848 10.8424 6.75 12.5 6.75H87.5C89.1576 6.75 90.7473 7.40848 91.9194 8.58058C93.0915 9.75268 93.75 11.3424 93.75 13V14.3563L50 40.6062L6.25 14.3563Z"
      fill="url(#paint0_linear_213_20)" />
   <path
      d="M100 66.125C100 71.9266 97.6953 77.4906 93.593 81.593C89.4906 85.6953 83.9266 88 78.125 88C72.3234 88 66.7594 85.6953 62.657 81.593C58.5547 77.4906 56.25 71.9266 56.25 66.125C56.25 60.3234 58.5547 54.7594 62.657 50.657C66.7594 46.5547 72.3234 44.25 78.125 44.25C83.9266 44.25 89.4906 46.5547 93.593 50.657C97.6953 54.7594 100 60.3234 100 66.125V66.125ZM87.5437 55.6313C87.1917 55.4202 86.8015 55.2807 86.3954 55.2205C85.9894 55.1603 85.5755 55.1807 85.1773 55.2806C84.7792 55.3804 84.4046 55.5577 84.075 55.8023C83.7453 56.0469 83.4671 56.3541 83.2563 56.7063L75.9438 68.8937L72.525 65.475C71.9382 64.8882 71.1423 64.5586 70.3125 64.5586C69.4827 64.5586 68.6868 64.8882 68.1 65.475C67.5132 66.0618 67.1836 66.8577 67.1836 67.6875C67.1836 68.5173 67.5132 69.3132 68.1 69.9L72.9375 74.7312C73.441 75.2357 74.0529 75.6188 74.7268 75.8512C75.4006 76.0836 76.1185 76.1593 76.826 76.0725C77.5334 75.9858 78.2118 75.7388 78.8095 75.3504C79.4071 74.962 79.9083 74.4425 80.275 73.8312L88.6187 59.9187C88.8298 59.5667 88.9693 59.1765 89.0295 58.7704C89.0897 58.3644 89.0693 57.9505 88.9694 57.5523C88.8696 57.1542 88.6923 56.7796 88.4477 56.45C88.2031 56.1203 87.8959 55.8421 87.5437 55.6313V55.6313Z"
      fill="#5851DB" />
   <defs>
      <linearGradient id="paint0_linear_213_20" x1="-2.60429e-06" y1="2.02043e-06" x2="100" y2="75"
         gradientUnits="userSpaceOnUse">
         <stop stop-color="#085CFF" />
         <stop offset="1" stop-color="#EB00FF" />
      </linearGradient>
   </defs>
</svg>
