<svg xmlns="http://www.w3.org/2000/svg" viewBox="0 0 231 231"><path d="M33.83,33.83a115.5,115.5,0,1,1,0,163.34,115.49,115.49,0,0,1,0-163.34Z" style="fill:#6FC30E;"/><path d="m115.5 51.75a63.75 63.75 0 0 0-10.5 126.63v14.09a115.5 115.5 0 0 0-53.729 19.027 115.5 115.5 0 0 0 128.46 0 115.5 115.5 0 0 0-53.729-19.029v-14.084a63.75 63.75 0 0 0 53.25-62.881 63.75 63.75 0 0 0-63.65-63.75 63.75 63.75 0 0 0-0.09961 0z" style="fill:#b96438;"/><path d="m91.92 194.41a101.47 101.47 0 0 1 23.58 17.09 101.47 101.47 0 0 1 23.58-17.09c0.89 0.19 1.78 0.38 2.67 0.59a114.79 114.79 0 0 1 38 16.5 115.53 115.53 0 0 1-128.46 0 114.79 114.79 0 0 1 38-16.5c0.88-0.21 1.78-0.4 2.67-0.59z" style="fill:#590D00;"/><path d="m73.65 199.82c16.59 8.23 28.72 18.91 34.27 30.93a114.86 114.86 0 0 1-56.65-19.25 115.06 115.06 0 0 1 22.38-11.68z" style="fill:#FD1336;"/><path d="m60.63 205.85c12.35 5.94 21.93 13.44 27.59 21.91a114.7 114.7 0 0 1-36.95-16.26q4.53-3 9.36-5.65z" style="fill:#590D00;"/><path d="m157.35 199.82c-16.6 8.23-28.72 18.91-34.27 30.93a114.86 114.86 0 0 0 56.65-19.25 115.06 115.06 0 0 0-22.38-11.68z" style="fill:#FD1336;"/><path d="m170.37 205.85c-12.35 5.94-21.93 13.44-27.59 21.91a114.7 114.7 0 0 0 36.95-16.26q-4.53-3-9.36-5.65z" style="fill:#590D00;"/><path d="m109.99 15.57c-13.46 3.6301-19.789 11.95-24.069 24.08-6.9996-7-8.7307-10.82-7.5606-21.43a41 41 0 0 0-9.2698 24.988c0.0366 7.6776 5.6462 13.939 12.697 15.297-13.315 5.8106-15.258 22.033-14.045 33.524 5.7687-11.861 14.254-20.981 27.258-22.951-0.43017 6.6-2.5099 10.22-7.29 17.66 18.29-2.8601 25.119-7.8199 37.15-18.24 0.46001 0 1.0001 0.089 1.4606 0.12058-0.33023 3.5601-1.0906 6.5598-5.0004 12.46 9.5298-1.32 14.721-5.8006 17.539-11.671 8.8862 0.95314 15.836 6.785 21.26 14.818 1.928-15.211-4.4766-26.6-19.807-34.036 1.4167-2.6974 8.0143-11.925 17.661-15.721-1.424-0.28569-2.8883-0.49486-4.4033-0.61125-5.71-0.41992-13.62-0.99982-24.89 4.1703 2.8501-8.5101 10.21-11 18.05-13.12-15.131-1.2501-28.61-2.5898-40.53 8.1801-1.8997-6.21-0.18055-12.54 3.7889-17.52z" style="fill:#00fffd;"/><path d="m172.63 69.954c1.2292 14.064 0.93841 29.96 0.34635 45.169 1.7887 6.796 3.0379 13.235 3.8842 18.388l0.13973-0.011c1.0001 6.56 2.3597 13.18 3.2698 19.73 2.0002-6.5699 2.5303-18.25 3.2405-25.43 1.2597-13 1.8296-29.311-0.43017-41.931-0.85041-4.72-2.0007-7.6896-2.0007-8.4796 4.6205 3.5601 8.6606 9.2204 13.001 14.15-0.6751-3.4318-1.347-6.6004-2.0567-9.5273-4.047-5.7183-13.726-12.154-19.393-12.06z" style="fill:none;"/><path d="m157.97 34.471c-10.339 2.7579-17.715 13.543-19.132 16.24 15.33 7.4361 20.783 17.96 21.278 33.517 5.9534 8.8179 10.066 20.289 12.857 30.895 0.87636-13.178 1.8186-27.726 0.26566-44.28 2.5698 0.44857 9.1372 1.3934 18.781 11.17-2.1158-8.7321-4.5671-15.31-8.4539-20.283-4.5598-5.8401-10.999-10.431-23.809-13 9.6502-3.34 16.27-0.76993 25.5 2.1301-8.1388-7.4315-16.474-14.219-27.287-16.389z" style="fill:none;"/><path d="m61.473 73.354c-7.256-0.77501-13.024 2.3746-16.262 5.3879 0.73789-0.45409 1.3868-0.74208 1.8489-0.74208 0 0-1.5198 10.359-1.6197 11.519-1.56 19.73 0.99957 43.401 6.37 62.471 1.3099 4.6899 1.1895 3.0893 1.8898-0.9107 1.7526-10.061 3.3891-24.703 6.9739-38.864-5.068-17.627-4.2508-32.403 0.79937-38.861z" style="fill:none;"/><path d="m69.09 43.21c-0.0253 1.0803-8e-3 2.1612 0.0523 3.2402-3.8402 0-12.46 0.71984-16 2.1598-4.4504 1.8001-8.48 5.4801-11.67 11.83 7.2999-3.94 11.899-3.8502 16.66-1.8102-10.39 3.45-19.52 11.37-20.32 26.9 1.1456-1.5053 4.6079-4.9789 7.1393-6.6285 0.09-0.0587 0.17427-0.10556 0.26167-0.15946 3.7141-2.3211 9.0494-5.1247 15.181-4.9553-5.0501 6.4577-6.6824 20.434 0.28207 38.428 1.7866-7.0567 4.0574-13.994 7.0681-20.184-1e-3 -11.664 2.0764-27.774 15.391-33.585-7.0508-2.1538-12.709-7.991-14.043-15.236z" style="fill:none;"/><path d="m83.527 103.98v10h10v-10h-10zm53.945 0v10h10v-10h-10z" style="fill:none;"/><path d="m56.621 94.906v11.688h5.3418v6.4922h5.3418v6.1055h5.3223v6.2324h26.846v-6.2324h5.3047v-6.1055h5.1445v-6.0039h11.154v6.0039h5.1446v6.1055h5.3066v6.2324h26.846v-6.2324h5.3203v-6.1055h5.3438v-6.4922h5.3418v-11.688z" style="fill:#000;"/><path d="m67.387 100.65v5.9394h5.1992v-5.9394zm5.1992 5.9394v6.4922h5.4238v-6.4922zm5.4238 0h5.1992v-5.9394h-5.1992zm5.1992 0v6.4922h5.4258v-6.4922zm5.4258 6.4922v6.1055h5.1426v-6.1055zm-10.625 0v6.1055h5.1445v-6.1055zm48.281-12.432v5.9394h5.1992v-5.9394zm5.1992 5.9394v6.4922h5.4238v-6.4922zm5.4238 0h5.1992v-5.9394h-5.1992zm5.1992 0v6.4922h5.4258v-6.4922zm5.4258 6.4922v6.1055h5.1426v-6.1055zm-10.625 0v6.1055h5.1445v-6.1055z" style="fill:#fff;"/><path d="m123.07 154.05a10.61 10.61 0 0 1-15 0.14l-0.14-0.14" style="fill:none;stroke-linecap:round;stroke-linejoin:round;stroke-width:6.3px;stroke:#000;"/><path d="m120.1 142.22 0.19-0.11c3-1.87 5.45-2.4 7.3-1.46 2.15 1.1 3.12 3.84 4.84 5.5a5.18 5.18 0 0 0 6.68 0.73m-28.21-4.66-0.19-0.11c-3-1.87-5.45-2.4-7.3-1.46-2.15 1.1-3.12 3.84-4.84 5.5a5.18 5.18 0 0 1-6.68 0.73" style="fill:none;stroke-linecap:round;stroke-linejoin:round;stroke-width:5.9998px;stroke:#4d4d4d;"/></svg>