<svg xmlns="http://www.w3.org/2000/svg" viewBox="0 0 231 231"><path d="M33.83,33.83a115.5,115.5,0,1,1,0,163.34,115.49,115.49,0,0,1,0-163.34Z" style="fill:#DC75FF;"/><path d="m115.5 51.75a63.75 63.75 0 0 0-10.5 126.63v14.09a115.5 115.5 0 0 0-53.729 19.027 115.5 115.5 0 0 0 128.46 0 115.5 115.5 0 0 0-53.729-19.029v-14.084a63.75 63.75 0 0 0 53.25-62.881 63.75 63.75 0 0 0-63.65-63.75 63.75 63.75 0 0 0-0.09961 0z" style="fill:#7b401e;"/><path d="m141.75 195c13.563 3.1499 26.439 8.7409 38 16.5-38.873 26.001-89.587 26.001-128.46 0 11.561-7.7591 24.437-13.35 38-16.5 8.4869 8.8011 26.21 25.619 26.21 25.619s17.603-16.972 26.25-25.619z" style="fill:#b4e1fa;"/><path d="m109 230.81 1.6836-14.33h9.6328l1.6836 14.33c-2.16 0.12-4.33 0.19-6.51 0.19s-4.35-0.07-6.51-0.19z" style="fill:#5b5d6e;"/><path d="m124.17 210.6h-17.349v5.53a3.8828 3.29 0 0 0 3.8828 3.29h9.583a3.8828 3.29 0 0 0 3.8828-3.29z" style="fill:#515262;"/><path d="m140.57 190.36-25.066 20.245c5.9686 3.2455 11.597 7.0814 16.8 11.45 1.5989 1.3338 3.9762 1.1189 5.31-0.48 0.21005-0.25749 0.38802-0.53956 0.52999-0.84l10.826-23.805-4-6c-0.90256-1.351-2.7298-1.7137-4.08-0.81-0.11612 0.0786-0.22641 0.16549-0.33 0.26z" style="fill:#a0d2f0;"/><path d="m90.434 190.36 25.066 20.245c-5.9686 3.2455-11.597 7.0814-16.8 11.45-1.5989 1.3338-3.9762 1.1189-5.31-0.48-0.21005-0.25749-0.38802-0.53956-0.52999-0.84l-10.826-23.805 4-6c0.90256-1.351 2.7298-1.7137 4.08-0.81 0.11612 0.0786 0.22641 0.16549 0.33 0.26z" style="fill:#a0d2f0;"/><path d="m52.107 57.293c-1.3411 14.839-3.8707 52.771 1.3145 72.715-0.67572-43.829 12.389-70.177 62.078-70.187 49.689 0.010061 62.754 26.359 62.078 70.187 5.1852-19.944 2.6556-57.876 1.3145-72.715h-63.393-63.393z" style="fill:#53ffff;"/><path d="m52.339 30.629c-1.3825 24.448-2.1216 45.905-1.4497 66.517 9.4643-48.304 112.77-54.916 129.22 0 0.67191-20.612-0.3798-47.256-1.4928-66.517-32.241 14.296-91.346 18.861-126.28 0z" style="fill:#53ffff;"/><path d="m115.5 24.92c-22.25 0-44.5 4.2296-56.72 12.69-3.32 2.3-5.0602 6.4392-5.5903 10.269-0.45275 3.23-0.84043 6.7561-1.1785 10.461h126.98c-0.33704-3.7047-0.72492-7.2306-1.1775-10.461-0.53009-3.8301-2.2697-7.9992-5.5897-10.269-12.22-8.4601-34.47-12.69-56.72-12.69z" style="fill:none;"/><path d="m76.521 39.139c21.233 3.3965 33.116-13.392 37.59-31.72 4.3614 17.158 14.175 34.968 36.577 31.584-33.921 20.594-57.646 11.594-74.167 0.1345z" style="fill:none;"/><path d="m83.739 83.92h63.533a19.101 19.1 0 0 1 19.051 19 19.111 19.11 0 0 1-19.051 19h-63.533a19.091 19.09 0 0 1-19.001-19 19.091 19.09 0 0 1 19.001-19z" style="fill:#0c00de;"/><path d="m140.23 93.54a9.3804 9.38 0 1 0 9.3804 9.38 9.3804 9.38 0 0 0-9.3804-9.38zm-49.402 0a9.3804 9.38 0 1 0 9.3804 9.38 9.3904 9.39 0 0 0-9.3804-9.38z" style="fill:#fff;"/><rect x="79.795" y="98.627" width="71.471" height="8.5859" ry="4.2929" style="fill:none;"/><path d="m115.5 161.71c-8.24 0-14.46-4.15-19.19-11.25 3.37-2.44 6.51-4.57 10-6.79a5.25 5.25 0 0 1 5.48-0.17 28.19 28.19 0 0 1 3.68 2.75 28.19 28.19 0 0 1 3.68-2.75 5.25 5.25 0 0 1 5.48 0.17c3.52 2.22 6.66 4.35 10 6.79-4.74 7.1-11 11.25-19.19 11.25z" style="fill:#d12823;"/></svg>