<svg xmlns="http://www.w3.org/2000/svg" viewBox="0 0 231 231"><path d="M33.83,33.83a115.5,115.5,0,1,1,0,163.34,115.49,115.49,0,0,1,0-163.34Z" style="fill:#fc0;"/><path d="m115.5 51.75a63.75 63.75 0 0 0-10.5 126.63v14.09a115.5 115.5 0 0 0-53.729 19.027 115.5 115.5 0 0 0 128.46 0 115.5 115.5 0 0 0-53.729-19.029v-14.084a63.75 63.75 0 0 0 53.25-62.881 63.75 63.75 0 0 0-63.65-63.75 63.75 63.75 0 0 0-0.09961 0z" style="fill:#ffce8b;"/><path d="m88.18 194.11c-4.2079 1.021-8.3545 2.2792-12.42 3.7695v26.072a115.5 115.5 0 0 0 79.48 0v-26.072c-4.0858-1.4904-8.2529-2.7486-12.48-3.7695v8.7051c0 9.3888-7.6112 17-17 17h-20.58c-9.3888 0-17-7.6112-17-17v-8.7051z" style="fill:#ff14e4;"/><path d="m115.5 51.75c-38.702 5.3101-54.215 18.038-59.863 35.101" style="fill:none;stroke-linecap:round;stroke-linejoin:round;stroke-width:12;stroke:#32393f;"/><path d="m115.5 51.75c-7.8393 3.6337-5.5974 16.583-14.341 23.452" style="fill:none;stroke-linecap:round;stroke-linejoin:round;stroke-width:12;stroke:#32393f;"/><path d="m111.35 48.614c-22.634-6.9181-42.457-3.1988-55.733 2.5105" style="fill:none;stroke-linecap:round;stroke-linejoin:round;stroke-width:12;stroke:#32393f;"/><path d="m115.47 54.008c0.1965-6.7774-0.1436-26.309 0.05-38.184" style="fill:none;stroke-linecap:round;stroke-linejoin:round;stroke-width:12;stroke:#32393f;"/><path d="m68.874 28.177c34.115-3.382 41.987 13.321 45.17 19.602" style="fill:none;stroke-linecap:round;stroke-linejoin:round;stroke-width:12;stroke:#32393f;"/><path d="m116.49 48.69c2.8876-6.3019 10.358-21.518 43.469-22.326" style="fill:none;stroke-linecap:round;stroke-linejoin:round;stroke-width:12;stroke:#32393f;"/><path d="m116.92 51.766c1.5094 6.3991 3.4988 15.595 10.088 23.058" style="fill:none;stroke-linecap:round;stroke-linejoin:round;stroke-width:12;stroke:#32393f;"/><path d="m113.81 51.532c22.03-7.8674 46.709-7.3614 59.444-2.0465" style="fill:none;stroke-linecap:round;stroke-linejoin:round;stroke-width:12;stroke:#32393f;"/><path d="m114.53 52.278c36.226 4.8583 52.414 17.092 59.373 33.347" style="fill:none;stroke-linecap:round;stroke-linejoin:round;stroke-width:12;stroke:#32393f;"/><path d="m55.637 86.851c-4.1213 12.452-2.9877 27.213-1.777 43.084" style="fill:none;stroke-linecap:round;stroke-linejoin:round;stroke-width:12;stroke:#32393f;"/><path d="m55.614 51.124c-13.422 5.5019-21.908 16.409-24.712 28.774-1.8322 8.4632-1.9809 18.156-1.6096 28.486" style="fill:none;stroke-linecap:round;stroke-linejoin:round;stroke-width:12;stroke:#32393f;"/><path d="m173.26 49.486c24.917 10.399 26.707 36.537 27.209 59.62" style="fill:none;stroke-linecap:round;stroke-linejoin:round;stroke-width:12;stroke:#32393f;"/><path d="m173.9 85.625c5.4042 12.625 5.2413 27.675 4.5745 43.58" style="fill:none;stroke-linecap:round;stroke-linejoin:round;stroke-width:12;stroke:#32393f;"/><path d="m53.86 129.93c1.293 16.951 2.6738 35.169-2.1664 53.193" style="fill:none;stroke-linecap:round;stroke-linejoin:round;stroke-width:12;stroke:#32393f;"/><path d="m29.292 108.38c0.6173 17.177 2.6722 36.119 0.8158 54.108" style="fill:none;stroke-linecap:round;stroke-linejoin:round;stroke-width:12;stroke:#32393f;"/><path d="m200.47 109.11c0.3586 18.529-1.2751 36.94 1.9231 48.985" style="fill:none;stroke-linecap:round;stroke-linejoin:round;stroke-width:12;stroke:#32393f;"/><path d="m178.48 129.2c-0.7279 17.362-2.0563 35.743 2.6011 53.099" style="fill:none;stroke-linecap:round;stroke-linejoin:round;stroke-width:12;stroke:#32393f;"/><path d="m83.527 103.98v10h10v-10h-10zm53.945 0v10h10v-10h-10z" style="fill:#000;"/><path d="m56.621 94.906v11.688h5.3418v6.4922h5.3418v6.1055h5.3223v6.2324h26.846v-6.2324h5.3047v-6.1055h5.1445v-6.0039h11.154v6.0039h5.1446v6.1055h5.3066v6.2324h26.846v-6.2324h5.3203v-6.1055h5.3438v-6.4922h5.3418v-11.688z" style="fill:none;"/><path d="m67.387 100.65v5.9394h5.1992v-5.9394zm5.1992 5.9394v6.4922h5.4238v-6.4922zm5.4238 0h5.1992v-5.9394h-5.1992zm5.1992 0v6.4922h5.4258v-6.4922zm5.4258 6.4922v6.1055h5.1426v-6.1055zm-10.625 0v6.1055h5.1445v-6.1055zm48.281-12.432v5.9394h5.1992v-5.9394zm5.1992 5.9394v6.4922h5.4238v-6.4922zm5.4238 0h5.1992v-5.9394h-5.1992zm5.1992 0v6.4922h5.4258v-6.4922zm5.4258 6.4922v6.1055h5.1426v-6.1055zm-10.625 0v6.1055h5.1445v-6.1055z" style="fill:none;"/><path d="m126.28 149.82c-6.16 2.43-15.52 2.42-21.56 0" style="fill:none;stroke-linecap:round;stroke-linejoin:round;stroke-width:5.9998px;stroke:#000;"/></svg>