<svg xmlns="http://www.w3.org/2000/svg" viewBox="0 0 231 231"><path d="M33.83,33.83a115.5,115.5,0,1,1,0,163.34,115.49,115.49,0,0,1,0-163.34Z" style="fill:#00D0D4;"/><path d="m115.5 51.75a63.75 63.75 0 0 0-10.5 126.63v14.09a115.5 115.5 0 0 0-53.729 19.027 115.5 115.5 0 0 0 128.46 0 115.5 115.5 0 0 0-53.729-19.029v-14.084a63.75 63.75 0 0 0 53.25-62.881 63.75 63.75 0 0 0-63.65-63.75 63.75 63.75 0 0 0-0.09961 0z" style="fill:#f5aa77;"/><path d="m116 203.13c-0.12 0-0.25 0.12-0.49 0.12s-0.25-0.12-0.49-0.12zm-27.29-8c0.87-0.25 1.72-0.47 2.56-0.69a32.37 32.37 0 0 0 0.3 8.57 21.5 21.5 0 0 0 7 6.88c6.41-6 16.8-6.64 16.8-6.64s10.5 0.58 17 6.69a21.61 21.61 0 0 0 6.93-6.66 32.34 32.34 0 0 0 0.35-8.84l2.13 0.56a114.79 114.79 0 0 1 38 16.5 115.53 115.53 0 0 1-128.46 0 114.64 114.64 0 0 1 37.38-16.37z" style="fill:#e6e9ee;"/><path d="m126.15 206-3.92 7.83h-13.46l-3.92-7.83a36.59 36.59 0 0 1 10.65-2.7 35.66 35.66 0 0 1 10.65 2.7z" style="fill:#f1543f;"/><path d="m124.54 230.65-2.18-16.74h-13.47l-2.19 16.76c2.9 0.22 5.84 0.33 8.8 0.33s6.06-0.12 9-0.35z" style="fill:#ff7058;"/><path d="m134.84 186s0.86 9.8-19.34 17.26c0 0 15.79 0.86 20.57 11.76 0.12 0.49 9.3-23.26-1.23-29z" style="fill:#fff;"/><path d="m96.16 186c-10.41 5.76-1.35 29.39-1.1 29 4.65-10.78 20.56-11.76 20.56-11.76-20.32-7.45-19.46-17.24-19.46-17.24z" style="fill:#fff;"/><path d="m30.622 70.381c2.0971-3.9374 4.6649-7.9604 7.6822-12.037 3.0172-4.0765 6.0987-7.6929 9.2229-10.817l22.897 22.897c-4.4402 4.4403-8.2278 9.5439-11.213 15.14z" style="fill:none;"/><path d="m160.58 70.423 22.907-22.897c3.1242 3.1242 6.2056 6.7406 9.2229 10.817 3.0065 4.0765 5.5744 8.0994 7.6715 12.037l-28.578 15.182c-2.9851-5.5958-6.7727-10.689-11.224-15.14z" style="fill:none;"/><path d="m92.411 15.247c3.8197-0.87736 7.6715-1.5407 11.534-1.9794 4.0765-0.46007 7.9282-0.69546 11.555-0.69546 1.53 0 3.1563 0.0428 4.8682 0.1391l1.851 22.255 5.767-21.57c3.1028 0.37449 6.0666 0.86666 8.8912 1.4658l-10.55 49.763c-1.9259-0.41729-3.702-0.70617-5.3176-0.87736-1.423-0.14979-3.2633-0.22468-5.5102-0.22468-2.2362 0-4.237 0.10699-5.981 0.29958-1.9473 0.22469-3.8732 0.55636-5.767 0.99504z" style="fill:#d6f740;"/><path d="m92.411 15.247c1.9152-0.43869 4.023-0.84526 6.3233-1.2304 2.065-0.34238 4.1514-0.62057 6.2698-0.84525l5.1785 50.565c-1.0913 0.10699-2.1827 0.25679-3.2954 0.43868-0.86665 0.14979-1.9152 0.36378-3.1349 0.64196z" style="fill:#516303;"/><path d="m83.527 103.98v10h10v-10h-10zm53.945 0v10h10v-10h-10z" style="fill:none;"/><path d="m56.621 94.906v11.688h5.3418v6.4922h5.3418v6.1055h5.3223v6.2324h26.846v-6.2324h5.3047v-6.1055h5.1445v-6.0039h11.154v6.0039h5.1446v6.1055h5.3066v6.2324h26.846v-6.2324h5.3203v-6.1055h5.3438v-6.4922h5.3418v-11.688z" style="fill:#000;"/><path d="m67.387 100.65v5.9394h5.1992v-5.9394zm5.1992 5.9394v6.4922h5.4238v-6.4922zm5.4238 0h5.1992v-5.9394h-5.1992zm5.1992 0v6.4922h5.4258v-6.4922zm5.4258 6.4922v6.1055h5.1426v-6.1055zm-10.625 0v6.1055h5.1445v-6.1055zm48.281-12.432v5.9394h5.1992v-5.9394zm5.1992 5.9394v6.4922h5.4238v-6.4922zm5.4238 0h5.1992v-5.9394h-5.1992zm5.1992 0v6.4922h5.4258v-6.4922zm5.4258 6.4922v6.1055h5.1426v-6.1055zm-10.625 0v6.1055h5.1445v-6.1055z" style="fill:#fff;"/><polygon points="121.61 160.74 109.39 160.74 115.5 171.31" style="fill:#ff9809;"/><path d="m132.64 144.06a34.42 34.42 0 0 1-34.24 0" style="fill:none;stroke-linecap:round;stroke-linejoin:round;stroke-width:5.9998px;stroke:#000;"/></svg>