<svg xmlns="http://www.w3.org/2000/svg" viewBox="0 0 231 231"><path d="M33.83,33.83a115.5,115.5,0,1,1,0,163.34,115.49,115.49,0,0,1,0-163.34Z" style="fill:#E6C117;"/><path d="m115.5 51.75a63.75 63.75 0 0 0-10.5 126.63v14.09a115.5 115.5 0 0 0-53.729 19.027 115.5 115.5 0 0 0 128.46 0 115.5 115.5 0 0 0-53.729-19.029v-14.084a63.75 63.75 0 0 0 53.25-62.881 63.75 63.75 0 0 0-63.65-63.75 63.75 63.75 0 0 0-0.09961 0z" style="fill:#fff;"/><path d="m141.75 195a114.79 114.79 0 0 1 38 16.5 115.53 115.53 0 0 1-128.46 0 114.79 114.79 0 0 1 38-16.5 115.77 115.77 0 0 1 15.71-2.53v-14.09a63.8 63.8 0 0 0 21 0v14.09a116.6 116.6 0 0 1 15.75 2.53z" style="fill:#000;"/><path d="m60.984 205.66 6.2675 2.2051 3.4074-6.819 2.8018-1.1353-3.9911 7.9907 27.222-3.0857 3.2541-11.739 2.1451-0.2692-3.2833 11.819 20.393-1.6011-14.191-15.945v-2.4379l17.606-5.7274 3.3855-0.473v1.47l-19.167 6.2295 14.731 16.542 19.839-7.7432 3.3636 0.8223-21.371 8.34 20.532 13.842 2.6777-21.687 1.9481 0.5604-2.7726 22.378 0.0584 0.0364 8.5075 4.9923-2.4807 0.85145-6.4718-3.7916-1.2987 6.0622-2.1524 0.53125 1.3425-6.2804-17.037 8.8348-5.0271 0.35661 21.59-11.193-20.962-14.133-7.5006 25.457-2.0721-0.0364 7.6392-25.915-21.05 1.652 9.0109 24.052-1.4155-0.0946-0.49615-0.0437-0.073-7e-3 -0.2043-0.0145-8.3688-22.342-10.127 19.242-1.9846-0.52399 10.514-19.962-26.04 2.9547 13.425 16.418-3.4438-1.0625-12.083-14.781-8.1645 5.9675-1.9043-1.077 8.128-5.9385-6.9898-2.4598 2.3348-1.2881zm92.509-7.2556 14.228 20.093-1.8095 0.89514-15.614-22.043z" style="fill:#00FFFF;"/><path d="m169.65 90.998c3.137 11.94 4.9371 36.484-3.4118 58.213l5.129 3.1164c10.044-15.199 14.959-39.163 13.943-61.33z" style="fill:none;"/><path d="m45.081 90.989c-0.88085 4.9304-0.87534 14.953-0.15027 21.75 2.1318 19.98 16.671 42.505 16.671 42.505l5.7352-4.4331s-13.244-31.348-6.0571-52.751c0.52108-1.5517 0.95592-2.916 1.3462-4.1835z" style="fill:none;"/><path d="m117 3.4883c-8.2136-0.19887-19.13 7.933-18.494 9.3516 1.6214 3.6186 11.176 22.55 11.889 23.963h10.148c2.6022-6.3102 11.32-26.531 11.32-26.531s-4.1382-4.138-12.416-6.4375c-0.77605-0.21556-1.5976-0.32513-2.4473-0.3457z" style="fill:none;"/><path d="m115.95 4.5428c-3.1563 0-6.3123 0.57462-9.2165 1.715-5.8084 2.2817-10.532 6.808-12.779 12.245v-5e-3c-1.8166 4.397-2.0233 9.3441-0.58058 13.857 0.69352 2.1687 1.7693 4.2296 3.1533 6.0968h38.893c0.71032-0.95769 1.3441-1.9641 1.8787-3.0144 2.6811-5.2673 2.9296-11.542 0.67253-16.975-2.257-5.4337-6.9893-9.9522-12.802-12.224-2.9064-1.1335-6.0633-1.6987-9.2196-1.6956z" style="fill:none;"/><path d="m92.512 28.125c0.13387 1.4318 0.41877 2.8511 0.85962 4.2306 1.4429 4.5127 4.5278 8.5654 8.6411 11.353 4.1135 2.7873 9.2311 4.2913 14.336 4.2165 5.1052-0.0764 10.168-1.7333 14.181-4.6419 2.8754-2.0834 5.2132-4.7932 6.7665-7.8447 1.2005-2.3586 1.9085-4.9188 2.127-7.5156-15.037-2.6407-31.421-3.4671-46.912 0.20253z" style="fill:none;"/><path d="m34.426 90.63c14.714 4.0779 22.683 6.4085 45.254 7.4257 2.5318-18.185 4.6689-28.672 10.023-38.352 3.2025 13.403 3.8346 25.22 2.9106 42.253l11.172-0.23161c1.4706-11.886 3.8989-29.213 2.1636-42.021 10.416 12.631 11.373 23.624 13.077 39.726 30.174-0.76004 59.808-4.5121 77.845-10.128-10.76-38.608-41.475-55.66-80.38-56.104-38.182-0.45134-74.543 22.405-82.065 57.432z" style="fill:#ffc107;"/><path d="m131.64 114.09 7.5801-7.5801 7.5801 7.5801m-62.6 0 7.5801-7.5801 7.5799 7.5801" style="fill:none;stroke-linecap:round;stroke-linejoin:round;stroke-width:6.4998px;stroke:#000;"/><path d="m94.19 136.84h42.632a3.7801 3.78 0 0 1 3.7802 3.78v3.22a15.231 15.23 0 0 1-15.211 15.16h-19.781a15.251 15.25 0 0 1-15.221-15.16v-3.22a3.8002 3.8 0 0 1 3.7802-3.78z" style="fill:#fff;stroke-linecap:round;stroke-linejoin:round;stroke-width:3px;stroke:#000;"/><path d="m130.96 136.84v21.16m-30.911-21.16v21.16m10.34-21.16v22.16m10.31-22.2v22.2" style="fill:none;stroke-linecap:round;stroke-linejoin:round;stroke-width:3px;stroke:#000;"/></svg>