<svg xmlns="http://www.w3.org/2000/svg" viewBox="0 0 231 231"><path d="M33.83,33.83a115.5,115.5,0,1,1,0,163.34,115.49,115.49,0,0,1,0-163.34Z" style="fill:#ff9700;"/><path d="m115.5 51.75a63.75 63.75 0 0 0-10.5 126.63v14.09a115.5 115.5 0 0 0-53.729 19.027 115.5 115.5 0 0 0 128.46 0 115.5 115.5 0 0 0-53.729-19.029v-14.084a63.75 63.75 0 0 0 53.25-62.881 63.75 63.75 0 0 0-63.65-63.75 63.75 63.75 0 0 0-0.09961 0z" style="fill:#c57b14;"/><path d="m141.75 195a114.79 114.79 0 0 1 38 16.5 115.53 115.53 0 0 1-128.46 0 114.79 114.79 0 0 1 38-16.5c0 10.76 11.75 19.48 26.25 19.48s26.25-8.72 26.25-19.48z" style="fill:#00650b;"/><path d="m92.502 194.27v0.70391c0 4.3033 2.4373 8.2583 6.3807 11.183 4.2199 3.1204 10.106 5.0508 16.661 5.0508 6.548 0 12.434-1.9303 16.654-5.0508 3.9434-2.9245 6.388-6.8795 6.388-11.183v-0.67489c1.0768 0.21771 2.1463 0.44994 3.2158 0.69666h-7e-3c1.0695 0.24672 2.1318 0.50798 3.1867 0.791-0.27648 6.103-3.6524 11.553-8.9708 15.493-5.2821 3.9114-12.521 6.328-20.466 6.328-7.9449 0-15.184-2.4165-20.474-6.328-5.333-3.9477-8.7089-9.4194-8.9708-15.544 1.055-0.27577 2.1099-0.53702 3.1722-0.78376 1.0695-0.23947 2.1463-0.46443 3.2304-0.68213z" style="fill:#62ce5a;"/><path d="m69.834 33.826c-8.2001-0.0626-16.444 2.6753-23.152 7.7038-8.5298 6.9899-12.159 19.61-12.329 32.68-0.2041 15.476 1.6092 34.752 1.7464 51.915 0.10414 13.047 0.53485 25.984-2.9197 33.995-2.4994 5.81-9.0955 9.6006-16.196 12.311 7.9599 2.8301 25.009 2.8094 33.58 1.5393 10.8-1.59 17.238-6.5294 17.159-22.699-0.0911-15.93-1.3894-29.23-1.559-45.83-0.3208-11.983-1.569-24.291 4.9774-33.987 4.2139-6.1265 10.452-10.521 17.116-13.588 3.9292-1.8575 8.0384-3.3083 12.263-4.3297-6.8718-13.574-18.732-19.618-30.687-19.709z" style="fill:#fff510;"/><path d="m90.8 76.246c11.918-17.125 31.996-23.218 49.743-17.488 11.81 3.9496 20.692 13.389 22.313 28.237 0.51051 6.2098 0.63413 12.445 0.37007 18.67-0.23973 11.2-0.72946 23.82-1.0995 34.08-0.82005 22.43 0.0593 35.1 24.589 36.3 8.5635 0.32122 17.137-0.22845 25.59-1.6405h-0.0198c-10.74-3.3799-17.98-15.609-19.3-26.289-1.29-10.41-0.6098-23.43-0.7898-38.091-0.1701-14.96 1.0398-29.819 0.28008-42.089-1.414-22.777-14.947-38.505-34.126-45.152-27.813-7.35-51.083 0.091-61.672 17.343-5.4698 8.9112-7.7413 20.07-5.8788 36.121z" style="fill:#fff510;"/><path d="m97.56 107.84a10.63 10.63 0 0 1-15 0.13l-0.13-0.13" style="fill:none;stroke-linecap:round;stroke-linejoin:round;stroke-width:6.3px;stroke:#000;"/><path d="m148.59 107.84a10.63 10.63 0 0 1-15 0.13l-0.13-0.13" style="fill:none;stroke-linecap:round;stroke-linejoin:round;stroke-width:6.3px;stroke:#000;"/><path d="m115.5 161.71c-8.24 0-14.46-4.15-19.19-11.25 3.37-2.44 6.51-4.57 10-6.79a5.25 5.25 0 0 1 5.48-0.17 28.19 28.19 0 0 1 3.68 2.75 28.19 28.19 0 0 1 3.68-2.75 5.25 5.25 0 0 1 5.48 0.17c3.52 2.22 6.66 4.35 10 6.79-4.74 7.1-11 11.25-19.19 11.25z" style="fill:#f70014;"/></svg>